<?xml version="1.0" encoding="UTF-8" standalone="no"?>
<!-- Created with Inkscape (http://www.inkscape.org/) -->

<svg
   id="svg3041"
   sodipodi:docname="16100625-6140-41f5-8b76-d411a1b82bb6.svg"
   viewBox="0 0 468.75 468.74998"
   version="1.1"
   inkscape:version="1.4 (e7c3feb100, 2024-10-09)"
   width="500"
   height="500"
   xml:space="preserve"
   xmlns:inkscape="http://www.inkscape.org/namespaces/inkscape"
   xmlns:sodipodi="http://sodipodi.sourceforge.net/DTD/sodipodi-0.dtd"
   xmlns:xlink="http://www.w3.org/1999/xlink"
   xmlns="http://www.w3.org/2000/svg"
   xmlns:svg="http://www.w3.org/2000/svg"
   xmlns:rdf="http://www.w3.org/1999/02/22-rdf-syntax-ns#"
   xmlns:cc="http://creativecommons.org/ns#"
   xmlns:dc="http://purl.org/dc/elements/1.1/"><defs
     id="defs26"><linearGradient
       id="linearGradient3235"><stop
         id="stop3237"
         style="stop-color:#ffffff"
         offset="0" /><stop
         id="stop3247"
         style="stop-color:#43ff38"
         offset=".26786" /><stop
         id="stop3239"
         style="stop-color:#ffffff;stop-opacity:0"
         offset="1" /></linearGradient><radialGradient
       id="radialGradient5217"
       xlink:href="#linearGradient3235"
       gradientUnits="userSpaceOnUse"
       cy="507.57999"
       cx="544.67999"
       gradientTransform="matrix(0.6462,0,0,0.37308,192.71,318.21)"
       r="7.6715002"
       inkscape:collect="always" /><linearGradient
       id="linearGradient3282"><stop
         id="stop3284"
         style="stop-color:#ffffff;stop-opacity:.29412"
         offset="0" /><stop
         id="stop3286"
         style="stop-color:#ffffff;stop-opacity:0"
         offset="1" /></linearGradient><filter
       inkscape:collect="always"
       id="filter4213"
       x="-0.096832499"
       width="1.193665"
       y="-0.13593983"
       height="1.2718797"><feGaussianBlur
         inkscape:collect="always"
         stdDeviation="16.845474"
         id="feGaussianBlur4215" /></filter><linearGradient
       id="linearGradient4143"><stop
         style="stop-color:#c3c3c3;stop-opacity:1;"
         offset="0"
         id="stop4145" /><stop
         style="stop-color:#f3f3f3;stop-opacity:1;"
         offset="1"
         id="stop4147" /></linearGradient><linearGradient
       id="linearGradient3844-7"><stop
         style="stop-color:#997979;stop-opacity:1;"
         offset="0"
         id="stop3846-4" /><stop
         style="stop-color:#483737;stop-opacity:1;"
         offset="1"
         id="stop3848-0" /></linearGradient><radialGradient
       inkscape:collect="always"
       xlink:href="#linearGradient3844-7"
       id="radialGradient510"
       gradientUnits="userSpaceOnUse"
       gradientTransform="matrix(1,0,0,0.37357961,0,383.43584)"
       cx="397.23151"
       cy="600.68091"
       fx="397.23151"
       fy="600.68091"
       r="26.083048" /><radialGradient
       inkscape:collect="always"
       xlink:href="#linearGradient3844-7"
       id="radialGradient518"
       gradientUnits="userSpaceOnUse"
       gradientTransform="matrix(1,0,0,0.37357961,0,383.43584)"
       cx="397.23151"
       cy="600.68091"
       fx="397.23151"
       fy="600.68091"
       r="26.083048" /><radialGradient
       inkscape:collect="always"
       xlink:href="#linearGradient3844-7"
       id="radialGradient526"
       gradientUnits="userSpaceOnUse"
       gradientTransform="matrix(1,0,0,0.37357961,0,383.43584)"
       cx="397.23151"
       cy="600.68091"
       fx="397.23151"
       fy="600.68091"
       r="26.083048" /><radialGradient
       inkscape:collect="always"
       xlink:href="#linearGradient3844-7"
       id="radialGradient534"
       gradientUnits="userSpaceOnUse"
       gradientTransform="matrix(1,0,0,0.37357961,0,383.43584)"
       cx="397.23151"
       cy="600.68091"
       fx="397.23151"
       fy="600.68091"
       r="26.083048" /><linearGradient
       id="linearGradient4083"><stop
         style="stop-color:#000000;stop-opacity:0.30303031;"
         offset="0"
         id="stop4085" /><stop
         style="stop-color:#000000;stop-opacity:0;"
         offset="1"
         id="stop4087" /></linearGradient><filter
       color-interpolation-filters="sRGB"
       inkscape:collect="always"
       id="filter4115"
       x="-0.027559635"
       width="1.0551193"
       y="-0.11188394"
       height="1.2237679"><feGaussianBlur
         inkscape:collect="always"
         stdDeviation="1.7143243"
         id="feGaussianBlur4117" /></filter><linearGradient
       id="linearGradient4139"><stop
         style="stop-color:#1a1a1a;stop-opacity:0.17424242;"
         offset="0"
         id="stop4141" /><stop
         style="stop-color:#1a1a1a;stop-opacity:0.0530303;"
         offset="1"
         id="stop4143" /></linearGradient><filter
       color-interpolation-filters="sRGB"
       inkscape:collect="always"
       id="filter4206"
       x="-0.25164049"
       width="1.503281"
       y="-0.13903916"
       height="1.2780783"><feGaussianBlur
         inkscape:collect="always"
         stdDeviation="2.2670355"
         id="feGaussianBlur4208" /></filter><linearGradient
       inkscape:collect="always"
       id="linearGradient4273"><stop
         style="stop-color:#000000;stop-opacity:0.21656051"
         offset="0"
         id="stop4275" /><stop
         style="stop-color:#000000;stop-opacity:0;"
         offset="1"
         id="stop4277" /></linearGradient><filter
       inkscape:collect="always"
       style="color-interpolation-filters:sRGB"
       id="filter4325"
       x="-0.63885834"
       width="2.2777167"
       y="-0.23555692"
       height="1.4711138"><feGaussianBlur
         inkscape:collect="always"
         stdDeviation="4.9074321"
         id="feGaussianBlur4327" /></filter><filter
       inkscape:collect="always"
       id="filter4193"
       x="-0.069974484"
       width="1.139949"
       y="-0.10729416"
       height="1.2145883"><feGaussianBlur
         inkscape:collect="always"
         stdDeviation="5.9724621"
         id="feGaussianBlur4195" /></filter><filter
       color-interpolation-filters="sRGB"
       inkscape:collect="always"
       id="filter5837"
       x="-0.0065761994"
       y="-0.0079428873"
       width="1.0131524"
       height="1.0158858"><feGaussianBlur
         inkscape:collect="always"
         stdDeviation="0.62261719"
         id="feGaussianBlur5839" /></filter><filter
       color-interpolation-filters="sRGB"
       inkscape:collect="always"
       id="filter6698"
       x="-0.058804229"
       width="1.1176085"
       y="-0.10904065"
       height="1.2180813"><feGaussianBlur
         inkscape:collect="always"
         stdDeviation="3.7544315"
         id="feGaussianBlur6700" /></filter><filter
       color-interpolation-filters="sRGB"
       inkscape:collect="always"
       id="filter6710"
       x="-0.050167993"
       width="1.100336"
       y="-0.12691204"
       height="1.2538241"><feGaussianBlur
         inkscape:collect="always"
         stdDeviation="2.704557"
         id="feGaussianBlur6712" /></filter><clipPath
       clipPathUnits="userSpaceOnUse"
       id="clipPath367"><path
         d="M 64.09713,512 H 447.9029 c 22.2879,0 30.3701,-2.3206 38.5182,-6.6783 8.1482,-4.3577 14.5429,-10.7524 18.9006,-18.9006 C 509.6794,478.273 512,470.1908 512,447.9029 V 64.09713 C 512,41.80916 509.6794,33.72701 505.3217,25.57886 500.964,17.43071 494.5693,11.03599 486.4211,6.678318 478.273,2.32064 470.1908,0 447.9029,0 H 64.09713 C 41.80916,0 33.72701,2.32064 25.57886,6.678318 17.43071,11.03599 11.03599,17.43071 6.678318,25.57886 2.32064,33.72701 0,41.80916 0,64.09713 V 447.9029 c 0,22.2879 2.32064,30.3701 6.678318,38.5182 4.357672,8.1482 10.752392,14.5429 18.900542,18.9006 8.14815,4.3577 16.2303,6.6783 38.51827,6.6783 z"
         clip-rule="evenodd"
         id="path365" /></clipPath><clipPath
       clipPathUnits="userSpaceOnUse"
       id="clipPath373"><path
         d="M 0,0 H 512 V 512 H 0 Z"
         id="path371" /></clipPath><clipPath
       clipPathUnits="userSpaceOnUse"
       id="clipPath383"><path
         d="M 310.6214,362 424.7089,162.0939 H 310.6961 l -57.0086,99.4988 z"
         clip-rule="evenodd"
         id="path381" /></clipPath><clipPath
       clipPathUnits="userSpaceOnUse"
       id="clipPath389"><path
         d="M 0,0 H 512 V 512 H 0 Z"
         id="path387" /></clipPath><clipPath
       clipPathUnits="userSpaceOnUse"
       id="clipPath399"><path
         d="M 197.1006,362 83.51535,162.0939 H 197.1006 L 310.6214,362 Z"
         clip-rule="evenodd"
         id="path397" /></clipPath><clipPath
       clipPathUnits="userSpaceOnUse"
       id="clipPath405"><path
         d="M 0,0 H 512 V 512 H 0 Z"
         id="path403" /></clipPath><linearGradient
       inkscape:collect="always"
       xlink:href="#linearGradient4143"
       id="linearGradient3961"
       gradientUnits="userSpaceOnUse"
       x1="171.69896"
       y1="469.29852"
       x2="206.15698"
       y2="502.17801" /><radialGradient
       inkscape:collect="always"
       xlink:href="#linearGradient3844-7"
       id="radialGradient3963"
       gradientUnits="userSpaceOnUse"
       gradientTransform="matrix(1,0,0,0.37357961,0,383.43584)"
       cx="397.23151"
       cy="600.68091"
       fx="397.23151"
       fy="600.68091"
       r="26.083048" /><linearGradient
       inkscape:collect="always"
       xlink:href="#linearGradient4083"
       id="linearGradient3965"
       gradientUnits="userSpaceOnUse"
       x1="287.24997"
       y1="485.21329"
       x2="172.85957"
       y2="498.73584" /><linearGradient
       inkscape:collect="always"
       xlink:href="#linearGradient4139"
       id="linearGradient3967"
       gradientUnits="userSpaceOnUse"
       x1="103.85932"
       y1="454.36697"
       x2="114.47441"
       y2="505.73672" /><linearGradient
       inkscape:collect="always"
       xlink:href="#linearGradient4273"
       id="linearGradient3969"
       gradientUnits="userSpaceOnUse"
       x1="-118.89457"
       y1="527.60345"
       x2="-111.80612"
       y2="558.22845" /><radialGradient
       inkscape:collect="always"
       xlink:href="#linearGradient3844-7"
       id="radialGradient3971"
       gradientUnits="userSpaceOnUse"
       gradientTransform="matrix(5.4049679,-0.09382076,-1.4750968,2.6349782,-1809.1794,112.72143)"
       cx="385.49899"
       cy="603.20496"
       fx="385.49899"
       fy="603.20496"
       r="26.083048" /><radialGradient
       inkscape:collect="always"
       xlink:href="#linearGradient3844-7"
       id="radialGradient4011"
       gradientUnits="userSpaceOnUse"
       gradientTransform="matrix(1,0,0,0.37357961,0,383.43584)"
       cx="397.23151"
       cy="600.68091"
       fx="397.23151"
       fy="600.68091"
       r="26.083048" /><radialGradient
       inkscape:collect="always"
       xlink:href="#linearGradient3844-7"
       id="radialGradient4021"
       gradientUnits="userSpaceOnUse"
       gradientTransform="matrix(1,0,0,0.37357961,0,383.43584)"
       cx="397.23151"
       cy="600.68091"
       fx="397.23151"
       fy="600.68091"
       r="26.083048" /><radialGradient
       inkscape:collect="always"
       xlink:href="#linearGradient3844-7"
       id="radialGradient4031"
       gradientUnits="userSpaceOnUse"
       gradientTransform="matrix(1,0,0,0.37357961,0,383.43584)"
       cx="397.23151"
       cy="600.68091"
       fx="397.23151"
       fy="600.68091"
       r="26.083048" /><radialGradient
       id="radialGradient5217-5"
       xlink:href="#linearGradient3235"
       gradientUnits="userSpaceOnUse"
       cy="507.57999"
       cx="544.67999"
       gradientTransform="matrix(0.6462,0,0,0.37308,192.71,318.21)"
       r="7.6715002"
       inkscape:collect="always" /><radialGradient
       inkscape:collect="always"
       xlink:href="#linearGradient3844-7"
       id="radialGradient510-0"
       gradientUnits="userSpaceOnUse"
       gradientTransform="matrix(1,0,0,0.37357961,0,383.43584)"
       cx="397.23151"
       cy="600.68091"
       fx="397.23151"
       fy="600.68091"
       r="26.083048" /><radialGradient
       inkscape:collect="always"
       xlink:href="#linearGradient3844-7"
       id="radialGradient518-9"
       gradientUnits="userSpaceOnUse"
       gradientTransform="matrix(1,0,0,0.37357961,0,383.43584)"
       cx="397.23151"
       cy="600.68091"
       fx="397.23151"
       fy="600.68091"
       r="26.083048" /><radialGradient
       inkscape:collect="always"
       xlink:href="#linearGradient3844-7"
       id="radialGradient526-3"
       gradientUnits="userSpaceOnUse"
       gradientTransform="matrix(1,0,0,0.37357961,0,383.43584)"
       cx="397.23151"
       cy="600.68091"
       fx="397.23151"
       fy="600.68091"
       r="26.083048" /><radialGradient
       inkscape:collect="always"
       xlink:href="#linearGradient3844-7"
       id="radialGradient534-6"
       gradientUnits="userSpaceOnUse"
       gradientTransform="matrix(1,0,0,0.37357961,0,383.43584)"
       cx="397.23151"
       cy="600.68091"
       fx="397.23151"
       fy="600.68091"
       r="26.083048" /><clipPath
       clipPathUnits="userSpaceOnUse"
       id="clipPath367-1"><path
         d="M 64.09713,512 H 447.9029 c 22.2879,0 30.3701,-2.3206 38.5182,-6.6783 8.1482,-4.3577 14.5429,-10.7524 18.9006,-18.9006 C 509.6794,478.273 512,470.1908 512,447.9029 V 64.09713 C 512,41.80916 509.6794,33.72701 505.3217,25.57886 500.964,17.43071 494.5693,11.03599 486.4211,6.678318 478.273,2.32064 470.1908,0 447.9029,0 H 64.09713 C 41.80916,0 33.72701,2.32064 25.57886,6.678318 17.43071,11.03599 11.03599,17.43071 6.678318,25.57886 2.32064,33.72701 0,41.80916 0,64.09713 V 447.9029 c 0,22.2879 2.32064,30.3701 6.678318,38.5182 4.357672,8.1482 10.752392,14.5429 18.900542,18.9006 8.14815,4.3577 16.2303,6.6783 38.51827,6.6783 z"
         clip-rule="evenodd"
         id="path365-8" /></clipPath><clipPath
       clipPathUnits="userSpaceOnUse"
       id="clipPath373-7"><path
         d="M 0,0 H 512 V 512 H 0 Z"
         id="path371-9" /></clipPath><clipPath
       clipPathUnits="userSpaceOnUse"
       id="clipPath383-2"><path
         d="M 310.6214,362 424.7089,162.0939 H 310.6961 l -57.0086,99.4988 z"
         clip-rule="evenodd"
         id="path381-0" /></clipPath><clipPath
       clipPathUnits="userSpaceOnUse"
       id="clipPath389-2"><path
         d="M 0,0 H 512 V 512 H 0 Z"
         id="path387-3" /></clipPath><clipPath
       clipPathUnits="userSpaceOnUse"
       id="clipPath399-7"><path
         d="M 197.1006,362 83.51535,162.0939 H 197.1006 L 310.6214,362 Z"
         clip-rule="evenodd"
         id="path397-5" /></clipPath><clipPath
       clipPathUnits="userSpaceOnUse"
       id="clipPath405-9"><path
         d="M 0,0 H 512 V 512 H 0 Z"
         id="path403-2" /></clipPath></defs><sodipodi:namedview
     id="base"
     bordercolor="#666666"
     inkscape:pageshadow="2"
     inkscape:window-y="0"
     fit-margin-left="0"
     pagecolor="#ffffff"
     fit-margin-top="0"
     inkscape:window-maximized="1"
     inkscape:zoom="0.65995363"
     inkscape:window-x="0"
     inkscape:window-height="1276"
     showgrid="false"
     borderopacity="1.0"
     inkscape:current-layer="layer1"
     inkscape:cx="107.58332"
     inkscape:cy="573.52515"
     fit-margin-right="0"
     fit-margin-bottom="0"
     inkscape:window-width="2400"
     inkscape:pageopacity="0.0"
     inkscape:document-units="px"
     inkscape:showpageshadow="2"
     inkscape:pagecheckerboard="0"
     inkscape:deskcolor="#d1d1d1"
     showguides="true" /><g
     id="layer1"
     inkscape:label="Layer 1"
     inkscape:groupmode="layer"
     transform="translate(-44.3965,-11.398655)"><g
       id="g2008"
       transform="matrix(3.8633202,0,0,3.8633202,473.33701,59.96129)"><g
         id="g359"
         transform="matrix(0.13830246,0,0,-0.13830246,-85.767686,66.029958)" /><g
         id="g361"
         transform="matrix(0.13830246,0,0,-0.13830246,-85.767686,66.029958)"><g
           id="g363"
           clip-path="url(#clipPath367)"><g
             id="g369"
             clip-path="url(#clipPath373)"><path
               d="M -1,513 H 513 V -1 H -1 Z"
               style="fill:#f6b102;fill-opacity:1;fill-rule:nonzero;stroke:none"
               id="path375" /></g></g></g><g
         id="g377"
         transform="matrix(0.13830246,0,0,-0.13830246,-85.767686,66.029958)"><g
           id="g379"
           clip-path="url(#clipPath383)"><g
             id="g385"
             clip-path="url(#clipPath389)"><path
               d="M 252.6875,363 H 425.7089 V 161.0939 H 252.6875 Z"
               style="fill:#fdebbf;fill-opacity:1;fill-rule:nonzero;stroke:none"
               id="path391" /></g></g></g><g
         id="g393"
         transform="matrix(0.13830246,0,0,-0.13830246,-85.767686,66.029958)"><g
           id="g395"
           clip-path="url(#clipPath399)"><g
             id="g401"
             clip-path="url(#clipPath405)"><path
               d="M 82.51535,363 H 311.6214 V 161.0939 H 82.51535 Z"
               style="fill:#ffffff;fill-opacity:1;fill-rule:nonzero;stroke:none"
               id="path407" /></g></g></g></g><g
       id="g3959"
       transform="matrix(0.69227937,0,0,0.69227937,-148.94781,236.60492)"><g
         id="g3957"
         transform="matrix(0.5,0,0,0.5,286.53023,13.452883)"><g
           id="g3955"><path
             style="color:#000000;display:inline;overflow:visible;visibility:visible;fill:#000000;fill-opacity:0.208889;stroke:none;stroke-width:1px;marker:none;filter:url(#filter4213);enable-background:accumulate"
             d="M 312.05323,632.27976 675.96519,432.26475 514.07444,334.87511 258.44898,610.43244 Z"
             id="path3782"
             inkscape:connector-curvature="0"
             sodipodi:nodetypes="ccccc" /><path
             style="color:#000000;display:inline;overflow:visible;visibility:visible;fill:#999999;stroke:#c8ab37;stroke-width:1;stroke-linecap:round;stroke-linejoin:round;marker:none;enable-background:accumulate"
             d="m 190.25282,396.85037 h -6.13718 v 70.86614 l 184.11563,106.29922 v -3.54331"
             id="path3784"
             inkscape:connector-curvature="0"
             sodipodi:nodetypes="ccccc" /><path
             style="color:#000000;display:inline;overflow:visible;visibility:visible;fill:#dbdbdb;fill-opacity:1;stroke:#e6e6e6;stroke-width:1px;stroke-linecap:round;stroke-linejoin:round;stroke-miterlimit:4;stroke-dasharray:none;stroke-dashoffset:0;stroke-opacity:1;marker:none;enable-background:accumulate"
             d="m 187.54447,398.26179 55.23469,31.88976 -95.12641,54.92126 -55.234696,-31.88976 z"
             id="path3786"
             inkscape:connector-curvature="0"
             sodipodi:nodetypes="ccccc" /><path
             style="color:#000000;display:inline;overflow:visible;visibility:visible;fill:url(#linearGradient3961);fill-opacity:1;stroke:none;stroke-width:1px;marker:none;enable-background:accumulate"
             d="m 146.35148,486.07045 3.06859,-1.77165 92.05782,-53.14961 125.81235,72.63779 1.30127,2.54567 -92.00955,53.16577 c -43.57374,-23.9958 -85.85929,-47.35434 -130.23048,-73.42797 z"
             id="path3788"
             inkscape:connector-curvature="0"
             sodipodi:nodetypes="ccccccc" /><g
             style="stroke:#1a1a1a"
             id="use3790"
             transform="matrix(0.16182481,-0.0934296,0.18685877,0.10788346,-32.986478,282.26251)"><path
               sodipodi:nodetypes="ccccc"
               transform="matrix(3.0897682,2.6758115,-5.3516107,4.6346414,1368.0789,-2141.319)"
               inkscape:connector-curvature="0"
               id="path4003"
               d="m 405.05441,577.55903 9.20577,5.31496 214.80158,-124.01574 -9.20578,-5.31496 z"
               style="color:#000000;display:inline;overflow:visible;visibility:visible;fill:#e9ddaf;stroke:none;stroke-width:1px;marker:none;enable-background:accumulate" /><path
               sodipodi:nodetypes="ccccc"
               transform="matrix(3.0897682,2.6758115,-5.3516107,4.6346414,1368.0789,-2141.319)"
               inkscape:connector-curvature="0"
               id="path4005"
               d="M 414.2602,593.50391 629.06176,469.48817 V 458.85825 L 414.26019,582.87399 Z"
               style="color:#000000;display:inline;overflow:visible;visibility:visible;fill:#ddcc86;fill-opacity:1;stroke:none;stroke-width:1px;marker:none;enable-background:accumulate" /><path
               sodipodi:nodetypes="sssss"
               inkscape:connector-curvature="0"
               id="path4007"
               d="m 418.3805,612.7758 c 0,5.38152 -3.52372,9.07456 -17.92899,9.07456 -14.40527,0 -20.12489,-4.75472 -20.12489,-10.13624 0,-5.38151 5.71962,-9.35195 20.12489,-9.35195 14.40527,0 17.92899,5.03212 17.92899,10.41363 z"
               style="fill:url(#radialGradient4011);fill-opacity:1;stroke:none"
               transform="matrix(5.4049679,-0.09382076,-3.9485473,7.0533245,-294.06434,-2614.2787)" /></g><g
             style="stroke:#1a1a1a"
             id="g3799"
             transform="matrix(0.16182481,-0.0934296,0.18685877,0.10788346,-55.301449,266.97061)"><path
               sodipodi:nodetypes="ccccc"
               transform="matrix(3.0897682,2.6758115,-5.3516107,4.6346414,1368.0789,-2141.319)"
               inkscape:connector-curvature="0"
               id="path3792"
               d="m 405.05441,577.55903 9.20577,5.31496 214.80158,-124.01574 -9.20578,-5.31496 z"
               style="color:#000000;display:inline;overflow:visible;visibility:visible;fill:#e9ddaf;stroke:none;stroke-width:1px;marker:none;enable-background:accumulate" /><path
               sodipodi:nodetypes="ccccc"
               transform="matrix(3.0897682,2.6758115,-5.3516107,4.6346414,1368.0789,-2141.319)"
               inkscape:connector-curvature="0"
               id="path3794"
               d="M 414.2602,593.50391 629.06176,469.48817 V 458.85825 L 414.26019,582.87399 Z"
               style="color:#000000;display:inline;overflow:visible;visibility:visible;fill:#ddcc86;fill-opacity:1;stroke:none;stroke-width:1px;marker:none;enable-background:accumulate" /><path
               sodipodi:nodetypes="sssss"
               inkscape:connector-curvature="0"
               id="path3797"
               d="m 418.3805,612.7758 c 0,5.38152 -3.52372,9.07456 -17.92899,9.07456 -14.40527,0 -20.12489,-4.75472 -20.12489,-10.13624 0,-5.38151 5.71962,-9.35195 20.12489,-9.35195 14.40527,0 17.92899,5.03212 17.92899,10.41363 z"
               style="fill:url(#radialGradient3963);fill-opacity:1;stroke:none"
               transform="matrix(5.4049679,-0.09382076,-3.9485473,7.0533245,-294.06434,-2614.2787)" /></g><g
             style="stroke:#1a1a1a"
             id="use3801"
             transform="matrix(0.16182481,-0.0934296,0.18685877,0.10788346,-13.880767,295.47339)"><path
               sodipodi:nodetypes="ccccc"
               transform="matrix(3.0897682,2.6758115,-5.3516107,4.6346414,1368.0789,-2141.319)"
               inkscape:connector-curvature="0"
               id="path4013"
               d="m 405.05441,577.55903 9.20577,5.31496 214.80158,-124.01574 -9.20578,-5.31496 z"
               style="color:#000000;display:inline;overflow:visible;visibility:visible;fill:#e9ddaf;stroke:none;stroke-width:1px;marker:none;enable-background:accumulate" /><path
               sodipodi:nodetypes="ccccc"
               transform="matrix(3.0897682,2.6758115,-5.3516107,4.6346414,1368.0789,-2141.319)"
               inkscape:connector-curvature="0"
               id="path4015"
               d="M 414.2602,593.50391 629.06176,469.48817 V 458.85825 L 414.26019,582.87399 Z"
               style="color:#000000;display:inline;overflow:visible;visibility:visible;fill:#ddcc86;fill-opacity:1;stroke:none;stroke-width:1px;marker:none;enable-background:accumulate" /><path
               sodipodi:nodetypes="sssss"
               inkscape:connector-curvature="0"
               id="path4017"
               d="m 418.3805,612.7758 c 0,5.38152 -3.52372,9.07456 -17.92899,9.07456 -14.40527,0 -20.12489,-4.75472 -20.12489,-10.13624 0,-5.38151 5.71962,-9.35195 20.12489,-9.35195 14.40527,0 17.92899,5.03212 17.92899,10.41363 z"
               style="fill:url(#radialGradient4021);fill-opacity:1;stroke:none"
               transform="matrix(5.4049679,-0.09382076,-3.9485473,7.0533245,-294.06434,-2614.2787)" /></g><g
             style="stroke:#1a1a1a"
             id="use3803"
             transform="matrix(0.16182481,-0.0934296,0.18685877,0.10788346,26.844887,327.7882)"><path
               sodipodi:nodetypes="ccccc"
               transform="matrix(3.0897682,2.6758115,-5.3516107,4.6346414,1368.0789,-2141.319)"
               inkscape:connector-curvature="0"
               id="path4023"
               d="m 405.05441,577.55903 9.20577,5.31496 214.80158,-124.01574 -9.20578,-5.31496 z"
               style="color:#000000;display:inline;overflow:visible;visibility:visible;fill:#e9ddaf;stroke:none;stroke-width:1px;marker:none;enable-background:accumulate" /><path
               sodipodi:nodetypes="ccccc"
               transform="matrix(3.0897682,2.6758115,-5.3516107,4.6346414,1368.0789,-2141.319)"
               inkscape:connector-curvature="0"
               id="path4025"
               d="M 414.2602,593.50391 629.06176,469.48817 V 458.85825 L 414.26019,582.87399 Z"
               style="color:#000000;display:inline;overflow:visible;visibility:visible;fill:#ddcc86;fill-opacity:1;stroke:none;stroke-width:1px;marker:none;enable-background:accumulate" /><path
               sodipodi:nodetypes="sssss"
               inkscape:connector-curvature="0"
               id="path4027"
               d="m 418.3805,612.7758 c 0,5.38152 -3.52372,9.07456 -17.92899,9.07456 -14.40527,0 -20.12489,-4.75472 -20.12489,-10.13624 0,-5.38151 5.71962,-9.35195 20.12489,-9.35195 14.40527,0 17.92899,5.03212 17.92899,10.41363 z"
               style="fill:url(#radialGradient4031);fill-opacity:1;stroke:none"
               transform="matrix(5.4049679,-0.09382076,-3.9485473,7.0533245,-294.06434,-2614.2787)" /></g><path
             style="color:#000000;display:inline;overflow:visible;visibility:visible;fill:url(#linearGradient3965);fill-opacity:1;stroke:none;stroke-width:1px;marker:none;filter:url(#filter4115);enable-background:accumulate"
             d="m 300.72221,478.34643 21.03707,1.51584 -142.33728,35.25779 -6.95274,-6.19538"
             id="path3805"
             inkscape:connector-curvature="0"
             sodipodi:nodetypes="cccc"
             transform="rotate(1.7910799,291.1615,1102.7154)"
             inkscape:transform-center-x="9.0221225" /><path
             transform="rotate(-20.261312,78.346068,488.75728)"
             style="fill:url(#linearGradient3967);fill-opacity:1;stroke:none;filter:url(#filter4206)"
             d="m 118.50224,477.63024 c 6.22043,7.81527 -2.62595,26.11684 -6.60201,26.11684 -3.97605,0 -12.866255,-15.05583 -12.866255,-25.04444 0,-9.98862 -0.274362,-14.34773 7.307095,-14.07563 3.97351,0.14261 5.15236,4.19743 12.16117,13.00323 z"
             id="path3807"
             inkscape:connector-curvature="0"
             sodipodi:nodetypes="sssss" /><path
             style="color:#000000;display:inline;overflow:visible;visibility:visible;fill:none;stroke:#e0cb77;stroke-width:1;stroke-linecap:round;stroke-linejoin:round;stroke-miterlimit:4;stroke-dasharray:none;stroke-dashoffset:0;stroke-opacity:1;marker:none;enable-background:accumulate"
             d="M 368.23127,574.01573 V 503.14958 L 184.11564,396.85037"
             id="path3809"
             inkscape:connector-curvature="0" /><path
             style="color:#000000;display:inline;overflow:visible;visibility:visible;fill:#f7f7f7;fill-opacity:1;stroke:#f9f9f9;stroke-width:1;stroke-linecap:round;stroke-linejoin:round;stroke-miterlimit:4;stroke-dasharray:none;stroke-dashoffset:0;stroke-opacity:1;marker:none;enable-background:accumulate"
             d="m 92.418057,453.18304 c -1.550465,22.31379 -0.890004,43.77476 0,63.77953 L 276.5337,623.26179 c -3.74287,-25.97121 -2.19152,-45.81749 0,-63.77953 C 213.2105,524.69963 150.09591,489.84746 92.418057,453.18304 Z"
             id="path3811"
             inkscape:connector-curvature="0"
             sodipodi:nodetypes="ccccc" /><ellipse
             transform="matrix(1,0,0.42905681,0.90327751,-3.8148538,-3.3872881)"
             ry="24.999981"
             rx="9.2178783"
             cy="545.10345"
             cx="-112.19594"
             id="ellipse3813"
             style="opacity:1;fill:url(#linearGradient3969);fill-opacity:1;stroke:none;stroke-width:6;stroke-linecap:round;stroke-linejoin:round;stroke-miterlimit:4;stroke-dasharray:none;stroke-dashoffset:0;filter:url(#filter4325)" /><g
             style="stroke:#1a1a1a"
             id="g3821"
             transform="matrix(0.18653584,0.01098812,0.09670789,0.19287981,28.660711,144.31489)"><path
               sodipodi:nodetypes="ccccc"
               transform="matrix(3.0897682,2.6758115,-5.3516107,4.6346414,1368.0789,-2141.319)"
               inkscape:connector-curvature="0"
               id="path3815"
               d="m 405.0544,584.64564 9.20578,-1.77165 214.80158,-124.01574 -9.20578,1.77165 z"
               style="color:#000000;display:inline;overflow:visible;visibility:visible;fill:#e6d8a5;fill-opacity:1;stroke:none;stroke-width:1px;marker:none;enable-background:accumulate" /><path
               sodipodi:nodetypes="ccccc"
               transform="matrix(3.0897682,2.6758115,-5.3516107,4.6346414,1368.0789,-2141.319)"
               inkscape:connector-curvature="0"
               id="path3817"
               d="m 414.2602,593.50391 217.87016,-125.7874 -3.0686,-8.85826 -214.80157,124.01574 z"
               style="color:#000000;display:inline;overflow:visible;visibility:visible;fill:#dbc97d;fill-opacity:1;stroke:none;stroke-width:1px;marker:none;enable-background:accumulate" /><path
               sodipodi:nodetypes="sssss"
               inkscape:connector-curvature="0"
               id="path3819"
               d="m -453.40595,1691.0778 c -21.24919,37.9576 -54.87692,64.3364 -132.73695,65.6879 -77.86002,1.3516 -104.84206,-28.7604 -83.59288,-66.718 21.24915,-37.9576 82.6829,-69.387 160.54292,-70.7385 77.86003,-1.3515 77.03605,33.8111 55.78691,71.7686 z"
               style="fill:url(#radialGradient3971);fill-opacity:1;stroke:none" /></g><path
             style="color:#000000;display:inline;overflow:visible;visibility:visible;fill:#000000;fill-opacity:0.311111;stroke:none;stroke-width:1px;marker:none;filter:url(#filter4193);enable-background:accumulate"
             d="m 208.73938,441.907 136.04626,81.85631 45.29528,-25.9134 -182.98233,-107.68109 -21.86247,8.19342 z"
             id="path3823"
             inkscape:connector-curvature="0"
             sodipodi:nodetypes="cccccc" /><path
             style="color:#000000;display:inline;overflow:visible;visibility:visible;fill:#ffeeaa;stroke:#ffeeaa;stroke-width:1;stroke-linecap:round;stroke-linejoin:round;stroke-miterlimit:4;stroke-dasharray:none;marker:none;enable-background:accumulate"
             d="M 368.23127,503.14958 184.11564,396.85037 423.46597,258.6614 607.5816,364.96061 Z"
             id="path3825"
             inkscape:connector-curvature="0"
             sodipodi:nodetypes="ccccc" /><path
             style="color:#000000;display:inline;overflow:visible;visibility:visible;fill:#dcdcdc;fill-opacity:1;stroke:#e0e0e0;stroke-width:1;stroke-linecap:round;stroke-linejoin:round;stroke-miterlimit:4;stroke-dasharray:none;stroke-dashoffset:0;stroke-opacity:1;marker:none;enable-background:accumulate"
             d="m 276.5337,559.48226 92.05781,-53.14961 v 63.77953 l -92.05781,53.14961 c -3.80325,-22.18162 -2.33911,-43.38315 0,-63.77953 z"
             id="path3827"
             inkscape:connector-curvature="0"
             sodipodi:nodetypes="ccccc" /><g
             id="g3837"><path
               sodipodi:nodetypes="ccccc"
               inkscape:connector-curvature="0"
               id="path3829"
               d="M 368.23127,574.01573 V 503.14958 L 607.5816,364.96061 v 70.86614 z"
               style="color:#000000;display:inline;overflow:visible;visibility:visible;fill:#decd87;fill-opacity:1;stroke:#decd87;stroke-width:1;stroke-linecap:round;stroke-linejoin:round;stroke-miterlimit:4;stroke-dasharray:none;stroke-dashoffset:0;stroke-opacity:1;marker:none;enable-background:accumulate" /><path
               style="color:#000000;display:inline;overflow:visible;visibility:visible;fill:#6f2c00;fill-opacity:1;stroke:none;stroke-width:2;marker:none;filter:url(#filter5837);enable-background:accumulate"
               d="m 374.21875,506.625 v 57.09375 L 601.44441,432.28344 v -56.69291 z"
               id="path3831"
               inkscape:connector-curvature="0"
               sodipodi:nodetypes="ccccc" /><path
               inkscape:connector-curvature="0"
               d="m 408.40744,511.98332 c 4.70196,-1.40208 9.46521,-2.56507 14.16493,-3.98836 6.41604,-2.05461 12.86153,-4.02246 19.13227,-6.50138 2.80263,-1.10793 5.5154,-2.43758 8.33112,-3.51182 1.54734,-0.59034 -5.97287,2.85684 -4.52186,2.05852 3.34489,-1.8403 6.80705,-3.4589 10.21057,-5.18836 23.29889,-12.10052 44.65111,-27.43475 65.56032,-43.20365 2.75227,-2.07178 5.50455,-4.14355 8.25682,-6.21532 0,0 14.38906,-4.43406 14.38906,-4.43406 v 0 c -2.9929,2.14376 -5.98581,4.28753 -8.97871,6.43129 -14.39712,10.475 -28.85182,20.8296 -43.79838,30.51445 -3.67419,2.38074 -7.33703,4.78251 -11.08952,7.03782 -3.34205,2.00862 -6.79136,3.83314 -10.18704,5.74972 -3.23921,1.69924 -6.42864,3.49698 -9.71764,5.09774 -8.6259,4.19824 -22.05186,10.66658 -32.23052,14.79853 -5.12491,2.08041 -9.86888,3.71923 -15.06221,5.54497 -1.96642,0.6913 -3.93595,1.37369 -5.90393,2.06053 -5.42366,1.79424 -10.92283,3.36347 -16.26313,5.40051 0,0 17.70785,-11.65113 17.70785,-11.65113 z"
               id="path3833"
               style="fill:#1a1a1a;fill-opacity:1;stroke:none;filter:url(#filter6698)" /><path
               inkscape:connector-curvature="0"
               d="m 452.40788,482.13177 c 15.16403,-7.86285 30.8407,-14.81216 46.3089,-22.01262 16.04898,-6.75961 32.72159,-11.84862 49.06431,-17.82744 2.95245,-1.12969 5.93457,-2.18472 8.85736,-3.38908 2.90717,-1.19792 11.47406,-5.14962 8.62685,-3.81542 -20.04317,9.39225 -17.7631,8.34727 -8.3465,3.19727 0,0 24.8731,-7.29787 24.8731,-7.29787 v 0 c -17.57797,9.49589 -35.76876,17.95777 -54.51532,24.87675 -16.93135,6.13111 -34.15837,11.56103 -50.54733,19.08434 37.02255,-17.23494 12.86214,-6.144 4.44057,-1.38825 0,0 -28.76194,8.57232 -28.76194,8.57232 z"
               id="path3835"
               style="fill:#1a1a1a;fill-opacity:1;stroke:none;filter:url(#filter6710)" /></g><g
             id="g3953"
             transform="matrix(0.16193073,-0.09349075,0.18698149,0.10795381,-24.936864,243.84407)"><rect
               style="opacity:1;fill:#ffd42a;fill-opacity:1;stroke:none;stroke-width:3.21714;stroke-linecap:round;stroke-linejoin:round;stroke-miterlimit:4;stroke-dasharray:none;stroke-dashoffset:0"
               id="rect3839"
               width="1400"
               height="920"
               x="-129.0874"
               y="1306.1479" /><rect
               style="opacity:1;fill:#666666;fill-opacity:1;stroke:#000000;stroke-width:5;stroke-linecap:round;stroke-linejoin:round;stroke-miterlimit:4;stroke-dasharray:none;stroke-dashoffset:0"
               id="rect3841"
               width="1320"
               height="840"
               x="-89.087402"
               y="1346.1479" /><rect
               style="opacity:1;fill:#c83737;fill-opacity:1;stroke:#000000;stroke-width:5;stroke-linecap:round;stroke-linejoin:round;stroke-miterlimit:4;stroke-dasharray:none;stroke-dashoffset:0"
               id="rect3843"
               width="1280"
               height="179.99994"
               x="-69.087402"
               y="1986.1479" /><rect
               style="opacity:1;fill:#c83737;fill-opacity:1;stroke:#000000;stroke-width:5;stroke-linecap:round;stroke-linejoin:round;stroke-miterlimit:4;stroke-dasharray:none;stroke-dashoffset:0"
               id="rect3845"
               width="1280"
               height="179.99994"
               x="-69.087402"
               y="1366.1479" /><rect
               style="opacity:1;fill:#ffd42a;fill-opacity:1;stroke:none;stroke-width:3.14643;stroke-linecap:round;stroke-linejoin:round;stroke-miterlimit:4;stroke-dasharray:none;stroke-dashoffset:0"
               id="rect3847"
               width="1280"
               height="440.00006"
               x="-69.087402"
               y="1546.1479" /><circle
               style="opacity:1;fill:#c83737;fill-opacity:1;stroke:#000000;stroke-width:5;stroke-linecap:round;stroke-linejoin:round;stroke-miterlimit:4;stroke-dasharray:none;stroke-dashoffset:0"
               id="circle3849"
               cx="10.9126"
               cy="1766.1479"
               r="29.999941" /><circle
               style="fill:#c83737;fill-opacity:1;stroke:#000000;stroke-width:5;stroke-linecap:round;stroke-linejoin:round;stroke-miterlimit:4;stroke-dasharray:none;stroke-dashoffset:0"
               id="use3851"
               cx="1130.9126"
               cy="1766.1479"
               r="29.999941" /><path
               style="opacity:1;fill:#4d4d4d;fill-opacity:1;stroke:#000000;stroke-width:5;stroke-linecap:round;stroke-linejoin:round;stroke-miterlimit:4;stroke-dasharray:none;stroke-dashoffset:0"
               d="m -69.0874,1496.1479 c 426.66667,-133.3068 870,-130 1280,0 l -65,150 c -340,-115 -811.62069,-116.6781 -1150,0 z"
               id="path3853"
               inkscape:connector-curvature="0"
               sodipodi:nodetypes="ccccc" /><path
               style="fill:#4d4d4d;fill-opacity:1;stroke:#000000;stroke-width:5;stroke-linecap:round;stroke-linejoin:round;stroke-miterlimit:4;stroke-dasharray:none;stroke-dashoffset:0"
               d="m -69.0874,2036.1479 c 426.66667,133.3068 870,130 1280,0 l -65,-150 c -340,115 -811.62069,116.6781 -1150,0 z"
               id="use3855"
               inkscape:connector-curvature="0"
               sodipodi:nodetypes="ccccc" /><g
               id="g3867"
               style="fill:#ffd42a;fill-opacity:1"><path
                 sodipodi:nodetypes="cccc"
                 inkscape:connector-curvature="0"
                 id="path3857"
                 d="m -69.0874,1496.1479 205,-115 30,55 z"
                 style="fill:#ffd42a;fill-opacity:1;fill-rule:evenodd;stroke:#000000;stroke-width:5;stroke-linecap:butt;stroke-linejoin:miter;stroke-miterlimit:4;stroke-dasharray:none;stroke-opacity:1" /><path
                 sodipodi:nodetypes="cc"
                 inkscape:connector-curvature="0"
                 id="path3859"
                 d="m 133.49617,1397.4519 -143.983437,78.8948"
                 style="fill:#ffd42a;fill-opacity:1;fill-rule:evenodd;stroke:#000000;stroke-width:3;stroke-linecap:butt;stroke-linejoin:miter;stroke-miterlimit:4;stroke-dasharray:none;stroke-opacity:1" /><path
                 sodipodi:nodetypes="cc"
                 inkscape:connector-curvature="0"
                 id="path3861"
                 d="M 139.22067,1407.2591 30.800264,1465.307"
                 style="fill:#ffd42a;fill-opacity:1;fill-rule:evenodd;stroke:#000000;stroke-width:3;stroke-linecap:butt;stroke-linejoin:miter;stroke-miterlimit:4;stroke-dasharray:none;stroke-opacity:1" /><path
                 sodipodi:nodetypes="cc"
                 inkscape:connector-curvature="0"
                 id="path3863"
                 d="m 143.91149,1415.2954 -72.99889,39.286"
                 style="fill:#ffd42a;fill-opacity:1;fill-rule:evenodd;stroke:#000000;stroke-width:3;stroke-linecap:butt;stroke-linejoin:miter;stroke-miterlimit:4;stroke-dasharray:none;stroke-opacity:1" /><path
                 sodipodi:nodetypes="cc"
                 inkscape:connector-curvature="0"
                 id="path3865"
                 d="m 148.6333,1423.3849 -40.42074,21.223"
                 style="fill:#ffd42a;fill-opacity:1;fill-rule:evenodd;stroke:#000000;stroke-width:3;stroke-linecap:butt;stroke-linejoin:miter;stroke-miterlimit:4;stroke-dasharray:none;stroke-opacity:1" /></g><g
               id="use3869"
               style="fill:#ffd42a;fill-opacity:1"
               transform="matrix(-1,0,0,1,1141.8252,0)"><path
                 sodipodi:nodetypes="cccc"
                 inkscape:connector-curvature="0"
                 id="path4053"
                 d="m -69.0874,1496.1479 205,-115 30,55 z"
                 style="fill:#ffd42a;fill-opacity:1;fill-rule:evenodd;stroke:#000000;stroke-width:5;stroke-linecap:butt;stroke-linejoin:miter;stroke-miterlimit:4;stroke-dasharray:none;stroke-opacity:1" /><path
                 sodipodi:nodetypes="cc"
                 inkscape:connector-curvature="0"
                 id="path4055"
                 d="m 133.49617,1397.4519 -143.983437,78.8948"
                 style="fill:#ffd42a;fill-opacity:1;fill-rule:evenodd;stroke:#000000;stroke-width:3;stroke-linecap:butt;stroke-linejoin:miter;stroke-miterlimit:4;stroke-dasharray:none;stroke-opacity:1" /><path
                 sodipodi:nodetypes="cc"
                 inkscape:connector-curvature="0"
                 id="path4057"
                 d="M 139.22067,1407.2591 30.800264,1465.307"
                 style="fill:#ffd42a;fill-opacity:1;fill-rule:evenodd;stroke:#000000;stroke-width:3;stroke-linecap:butt;stroke-linejoin:miter;stroke-miterlimit:4;stroke-dasharray:none;stroke-opacity:1" /><path
                 sodipodi:nodetypes="cc"
                 inkscape:connector-curvature="0"
                 id="path4059"
                 d="m 143.91149,1415.2954 -72.99889,39.286"
                 style="fill:#ffd42a;fill-opacity:1;fill-rule:evenodd;stroke:#000000;stroke-width:3;stroke-linecap:butt;stroke-linejoin:miter;stroke-miterlimit:4;stroke-dasharray:none;stroke-opacity:1" /><path
                 sodipodi:nodetypes="cc"
                 inkscape:connector-curvature="0"
                 id="path4061"
                 d="m 148.6333,1423.3849 -40.42074,21.223"
                 style="fill:#ffd42a;fill-opacity:1;fill-rule:evenodd;stroke:#000000;stroke-width:3;stroke-linecap:butt;stroke-linejoin:miter;stroke-miterlimit:4;stroke-dasharray:none;stroke-opacity:1" /></g><g
               id="g3879"
               style="fill:#333333;stroke:none;stroke-width:0;stroke-miterlimit:4;stroke-dasharray:none"><g
                 id="g3875"
                 style="fill:#333333;stroke:none;stroke-width:0;stroke-miterlimit:4;stroke-dasharray:none"><path
                   style="fill:#4d4d4d;fill-rule:evenodd;stroke:#000000;stroke-width:5;stroke-linecap:butt;stroke-linejoin:miter;stroke-miterlimit:4;stroke-dasharray:none;stroke-opacity:1"
                   d="m -69.0874,1746.1479 60,-70 -60,-150 z"
                   id="path3871"
                   inkscape:connector-curvature="0"
                   sodipodi:nodetypes="cccc" /><path
                   style="fill:#4d4d4d;fill-rule:evenodd;stroke:#000000;stroke-width:5;stroke-linecap:butt;stroke-linejoin:miter;stroke-miterlimit:4;stroke-dasharray:none;stroke-opacity:1"
                   d="m -69.0874,1786.1479 60,70 -60,150 z"
                   id="use3873"
                   inkscape:connector-curvature="0"
                   sodipodi:nodetypes="cccc" /></g><g
                 id="use3877"
                 style="fill:#333333;stroke:none;stroke-width:0;stroke-miterlimit:4;stroke-dasharray:none"
                 transform="matrix(-1,0,0,1,1141.8252,-1e-5)"><path
                   style="fill:#4d4d4d;fill-rule:evenodd;stroke:#000000;stroke-width:5;stroke-linecap:butt;stroke-linejoin:miter;stroke-miterlimit:4;stroke-dasharray:none;stroke-opacity:1"
                   d="m -69.0874,1746.1479 60,-70 -60,-150 z"
                   id="path4071"
                   inkscape:connector-curvature="0"
                   sodipodi:nodetypes="cccc" /><path
                   style="fill:#4d4d4d;fill-rule:evenodd;stroke:#000000;stroke-width:5;stroke-linecap:butt;stroke-linejoin:miter;stroke-miterlimit:4;stroke-dasharray:none;stroke-opacity:1"
                   d="m -69.0874,1786.1479 60,70 -60,150 z"
                   id="use4073"
                   inkscape:connector-curvature="0"
                   sodipodi:nodetypes="cccc" /></g></g><g
               id="g3885"
               style="stroke:#000000;stroke-width:5;stroke-miterlimit:4;stroke-dasharray:none"><path
                 sodipodi:nodetypes="cccccccccccc"
                 inkscape:connector-curvature="0"
                 id="path3881"
                 d="m -69.0874,2036.1479 80,-185 -80,-85 80,-85 -80,-185 v 40 l 60,140 -60,65 v 50 l 60,65 -60,140 z"
                 style="fill:#c83737;fill-rule:evenodd;stroke:#000000;stroke-width:5;stroke-linecap:butt;stroke-linejoin:miter;stroke-miterlimit:4;stroke-dasharray:none;stroke-opacity:1" /><path
                 sodipodi:nodetypes="cccccccccccc"
                 inkscape:connector-curvature="0"
                 id="use3883"
                 d="m 1210.9126,2036.1479 -80,-185 80,-85 -80,-85 80,-185 v 40 l -60,140 60,65 v 50 l -60,65 60,140 z"
                 style="fill:#c83737;fill-rule:evenodd;stroke:#000000;stroke-width:5;stroke-linecap:butt;stroke-linejoin:miter;stroke-miterlimit:4;stroke-dasharray:none;stroke-opacity:1" /></g><g
               style="font-style:normal;font-weight:normal;font-size:150px;line-height:125%;font-family:sans-serif;letter-spacing:0px;word-spacing:0px;fill:#ffd42a;fill-opacity:1;stroke:#000000;stroke-width:3;stroke-linecap:butt;stroke-linejoin:miter;stroke-miterlimit:4;stroke-dasharray:none;stroke-opacity:1"
               id="g3909"><path
                 d="m 19.170697,1507.9262 67.029171,-19.3168 5.410204,18.7733 -42.191605,12.159 5.168511,17.9347 39.675592,-11.434 5.410204,18.7734 -39.675591,11.4339 11.768588,40.8368 -24.837565,7.1579 z"
                 style="font-style:normal;font-variant:normal;font-weight:bold;font-stretch:normal;font-size:137.5px;font-family:sans-serif;-inkscape-font-specification:'sans-serif Bold';text-align:center;letter-spacing:-4.15px;text-anchor:middle;fill:#ffd42a;fill-opacity:1;stroke:#000000;stroke-width:3;stroke-miterlimit:4;stroke-dasharray:none"
                 id="path3887"
                 inkscape:connector-curvature="0" /><path
                 d="m 109.5071,1482.8258 25.09833,-6.1817 23.97202,97.3294 -25.09833,6.1816 z"
                 style="font-style:normal;font-variant:normal;font-weight:bold;font-stretch:normal;font-size:137.5px;font-family:sans-serif;-inkscape-font-specification:'sans-serif Bold';text-align:center;letter-spacing:-4.15px;text-anchor:middle;fill:#ffd42a;fill-opacity:1;stroke:#000000;stroke-width:3;stroke-miterlimit:4;stroke-dasharray:none"
                 id="path3889"
                 inkscape:connector-curvature="0" /><path
                 d="m 147.82095,1472.7966 25.47619,-5.1051 40.60581,67.3207 11.46569,-77.7553 25.47619,-5.1051 -16.7089,105.579 -30.21595,6.055 z"
                 style="font-style:normal;font-variant:normal;font-weight:bold;font-stretch:normal;font-size:137.5px;font-family:sans-serif;-inkscape-font-specification:'sans-serif Bold';text-align:center;letter-spacing:-4.15px;text-anchor:middle;fill:#ffd42a;fill-opacity:1;stroke:#000000;stroke-width:3;stroke-miterlimit:4;stroke-dasharray:none"
                 id="path3891"
                 inkscape:connector-curvature="0" /><path
                 d="m 265.53939,1450.1586 69.06789,-9.7814 2.73955,19.3443 -43.47489,6.1569 2.61716,18.4802 40.88234,-5.7898 2.73954,19.3443 -40.88234,5.7898 3.21966,22.7346 44.93735,-6.3641 2.73954,19.3444 -70.53036,9.9885 z"
                 style="font-style:normal;font-variant:normal;font-weight:bold;font-stretch:normal;font-size:137.5px;font-family:sans-serif;-inkscape-font-specification:'sans-serif Bold';text-align:center;letter-spacing:-4.15px;text-anchor:middle;fill:#ffd42a;fill-opacity:1;stroke:#000000;stroke-width:3;stroke-miterlimit:4;stroke-dasharray:none"
                 id="path3893"
                 inkscape:connector-curvature="0" /><path
                 d="m 475.95582,1432.1389 1.26261,21.1782 q -8.46318,-3.1946 -16.41636,-4.6037 -7.95318,-1.4091 -14.92322,-0.9935 -9.24872,0.5514 -13.52018,3.3618 -4.27147,2.8105 -3.95182,8.1721 0.23973,4.0211 3.32445,6.124 3.14774,2.0318 11.08493,3.1728 l 11.12308,1.5564 q 16.88768,2.3561 24.3323,8.7726 7.44461,6.4164 8.19578,19.0161 0.98691,16.5539 -8.38152,25.2506 -9.3054,8.6257 -29.47832,9.8284 -9.5168,0.5674 -19.20849,-0.6708 -9.6917,-1.2381 -19.48727,-4.2188 l -1.29857,-21.7814 q 9.88748,4.5221 18.95692,6.6045 9.13247,2.0113 17.44291,1.5159 8.44448,-0.5035 12.76698,-3.586 4.32251,-3.0826 4.01085,-8.3101 -0.27969,-4.6914 -3.51443,-7.0543 -3.16771,-2.367 -12.40226,-3.8342 l -10.11778,-1.6163 q -15.2042,-2.3219 -22.59378,-8.9434 -7.32256,-6.6255 -8.03377,-18.555 -0.89102,-14.9454 8.28035,-23.5632 9.17136,-8.6177 27.26667,-9.6965 8.24342,-0.4914 17.03189,0.2625 8.78448,0.6869 18.24805,2.6113 z"
                 style="font-style:normal;font-variant:normal;font-weight:bold;font-stretch:normal;font-size:137.5px;font-family:sans-serif;-inkscape-font-specification:'sans-serif Bold';text-align:center;letter-spacing:-4.15px;text-anchor:middle;fill:#ffd42a;fill-opacity:1;stroke:#000000;stroke-width:3;stroke-miterlimit:4;stroke-dasharray:none"
                 id="path3895"
                 inkscape:connector-curvature="0" /><path
                 d="m 492.57097,1427.9637 28.26517,-0.1089 22.96461,35.6295 22.68934,-35.8055 28.33231,-0.1091 -37.9781,58.1546 0.16273,42.2299 -25.8482,0.1 -0.16272,-42.2299 -38.42514,-57.8602 z"
                 style="font-style:normal;font-variant:normal;font-weight:bold;font-stretch:normal;font-size:137.5px;font-family:sans-serif;-inkscape-font-specification:'sans-serif Bold';text-align:center;letter-spacing:-4.15px;text-anchor:middle;fill:#ffd42a;fill-opacity:1;stroke:#000000;stroke-width:3;stroke-miterlimit:4;stroke-dasharray:none"
                 id="path3897"
                 inkscape:connector-curvature="0" /><path
                 d="m 608.47538,1427.853 32.83827,1.9808 19.55597,54.9208 26.14954,-52.164 32.77125,1.9766 -6.0351,100.0562 -24.39414,-1.4714 4.41415,-73.1824 -26.30782,52.5581 -16.35212,-0.9863 -19.79979,-55.3392 -4.41414,73.1825 -24.46116,-1.4755 z"
                 style="font-style:normal;font-variant:normal;font-weight:bold;font-stretch:normal;font-size:137.5px;font-family:sans-serif;-inkscape-font-specification:'sans-serif Bold';text-align:center;letter-spacing:-4.15px;text-anchor:middle;fill:#ffd42a;fill-opacity:1;stroke:#000000;stroke-width:3;stroke-miterlimit:4;stroke-dasharray:none"
                 id="path3899"
                 inkscape:connector-curvature="0" /><path
                 d="m 782.25744,1481.0247 q 6.06431,0.7427 9.52289,-1.5394 3.45858,-2.282 4.09518,-7.48 0.62844,-5.1313 -2.17721,-8.1806 -2.79749,-3.1158 -8.8618,-3.8585 l -14.19448,-1.7384 -2.57906,21.0584 z m -4.46318,43.6225 q 7.73032,0.9467 11.99541,-1.8453 4.33172,-2.7839 5.13971,-9.3813 0.79168,-6.4642 -2.68173,-10.1363 -3.46525,-3.7388 -11.26221,-4.6937 l -15.06081,-1.8445 -3.19118,26.0565 z m 28.24016,-32.8643 q 7.96963,3.4111 11.70953,10.4303 3.7399,7.0191 2.58911,16.4155 -1.7629,14.3944 -12.35757,20.2667 -10.59468,5.8723 -30.45363,3.4402 l -42.58344,-5.2153 12.18525,-99.4946 38.51835,4.7174 q 20.72527,2.5382 29.22115,9.9369 8.56252,7.4069 6.87307,21.2015 -0.88961,7.2638 -4.91673,11.9789 -4.01896,4.6485 -10.78509,6.3225 z"
                 style="font-style:normal;font-variant:normal;font-weight:bold;font-stretch:normal;font-size:137.5px;font-family:sans-serif;-inkscape-font-specification:'sans-serif Bold';text-align:center;letter-spacing:-4.15px;text-anchor:middle;fill:#ffd42a;fill-opacity:1;stroke:#000000;stroke-width:3;stroke-miterlimit:4;stroke-dasharray:none"
                 id="path3901"
                 inkscape:connector-curvature="0" /><path
                 d="m 894.2231,1475.6371 q -11.63892,-2.0403 -19.56062,5.4321 -7.92169,7.4724 -10.65759,23.0792 -2.7243,15.5406 2.18327,25.262 4.90757,9.7214 16.54649,11.7618 11.70506,2.0519 19.62675,-5.4205 7.9217,-7.4725 10.646,-23.0131 2.7359,-15.6067 -2.17168,-25.3281 -4.90757,-9.7215 -16.61262,-11.7734 z m 3.23438,-18.4503 q 23.80689,4.1734 34.90935,20.1611 11.10245,15.9878 6.89427,39.9931 -4.19658,23.9391 -20.07526,35.197 -15.87868,11.2579 -39.68557,7.0845 -23.74076,-4.1618 -34.90934,-20.1611 -11.10246,-15.9878 -6.90588,-39.9269 4.20818,-24.0053 20.08687,-35.2632 15.94481,-11.2463 39.68556,-7.0845 z"
                 style="font-style:normal;font-variant:normal;font-weight:bold;font-stretch:normal;font-size:137.5px;font-family:sans-serif;-inkscape-font-specification:'sans-serif Bold';text-align:center;letter-spacing:-4.15px;text-anchor:middle;fill:#ffd42a;fill-opacity:1;stroke:#000000;stroke-width:3;stroke-miterlimit:4;stroke-dasharray:none"
                 id="path3903"
                 inkscape:connector-curvature="0" /><path
                 d="m 967.14882,1472.1819 25.24227,5.5648 -17.37386,78.8083 44.32147,9.771 -4.2061,19.0793 -69.56378,-15.3359 z"
                 style="font-style:normal;font-variant:normal;font-weight:bold;font-stretch:normal;font-size:137.5px;font-family:sans-serif;-inkscape-font-specification:'sans-serif Bold';text-align:center;letter-spacing:-4.15px;text-anchor:middle;fill:#ffd42a;fill-opacity:1;stroke:#000000;stroke-width:3;stroke-miterlimit:4;stroke-dasharray:none"
                 id="path3905"
                 inkscape:connector-curvature="0" /><path
                 d="m 1118.7624,1511.7734 -5.3044,20.542 q -7.0725,-5.64 -14.2082,-9.4242 -7.1358,-3.7841 -13.8964,-5.5299 -8.9709,-2.3164 -13.8992,-0.9541 -4.9283,1.3624 -6.2712,6.5629 -1.0072,3.9004 1.2824,6.8492 2.3714,2.9006 9.5742,6.4247 l 10.1071,4.8981 q 15.3473,7.4301 20.4608,15.8233 5.1135,8.3931 1.9577,20.6143 -4.1461,16.0566 -15.7332,21.4548 -11.5052,5.35 -31.0722,0.2974 -9.2309,-2.3836 -18.0735,-6.5392 -8.8427,-4.1555 -17.249,-10.0013 l 5.4555,-21.1271 q 8.0202,7.3409 16.0113,12.1087 8.073,4.7196 16.1338,6.8011 8.1908,2.115 13.2513,0.5094 5.0604,-1.6056 6.3697,-6.6761 1.175,-4.5504 -1.1774,-7.7928 -2.2874,-3.2256 -10.6247,-7.4587 l -9.132,-4.6464 q -13.7557,-6.8804 -18.7538,-15.4518 -4.9331,-8.5546 -1.9452,-20.1257 3.7433,-14.4965 15.1185,-19.88 11.3753,-5.3836 28.927,-0.8514 7.9958,2.0647 16.1277,5.482 8.1486,3.3523 16.5634,8.0908 z"
                 style="font-style:normal;font-variant:normal;font-weight:bold;font-stretch:normal;font-size:137.5px;font-family:sans-serif;-inkscape-font-specification:'sans-serif Bold';text-align:center;letter-spacing:-4.15px;text-anchor:middle;fill:#ffd42a;fill-opacity:1;stroke:#000000;stroke-width:3;stroke-miterlimit:4;stroke-dasharray:none"
                 id="path3907"
                 inkscape:connector-curvature="0" /></g><g
               style="font-style:normal;font-weight:normal;font-size:40px;line-height:125%;font-family:sans-serif;letter-spacing:0px;word-spacing:0px;fill:#ffd42a;fill-opacity:1;stroke:#000000;stroke-width:3;stroke-linecap:butt;stroke-linejoin:miter;stroke-miterlimit:4;stroke-dasharray:none;stroke-opacity:1"
               id="g3935"><path
                 d="m 86.484439,1962.3515 q -11.441798,-2.9517 -19.928045,3.8728 -8.486248,6.8245 -12.444252,22.1669 -3.941233,15.2774 0.184501,25.3556 4.125735,10.0781 15.567532,13.0298 11.506808,2.9685 19.993056,-3.856 8.486247,-6.8245 12.427479,-22.1019 3.95801,-15.3424 -0.16773,-25.4206 -4.125733,-10.0781 -15.632541,-13.0466 z m 4.679166,-18.1378 q 23.403675,6.0376 33.210895,22.851 9.80721,16.8134 3.71927,40.4122 -6.07118,23.5337 -22.78813,33.5044 -16.716953,9.9708 -40.120631,3.9332 -23.338667,-6.0209 -33.210892,-22.8511 -9.807216,-16.8134 -3.73604,-40.3471 6.087947,-23.5987 22.804899,-33.5695 16.781962,-9.954 40.120629,-3.9331 z"
                 style="font-style:normal;font-variant:normal;font-weight:bold;font-stretch:normal;font-size:137.5px;font-family:sans-serif;-inkscape-font-specification:'sans-serif Bold';text-align:center;text-anchor:middle;fill:#ffd42a;fill-opacity:1;stroke:#000000;stroke-width:3;stroke-miterlimit:4;stroke-dasharray:none"
                 id="path3911"
                 inkscape:connector-curvature="0" /><path
                 d="m 154.63446,1961.6295 68.36183,13.882 -3.88802,19.1466 -43.03045,-8.738 -3.71433,18.2912 40.46441,8.217 -3.88802,19.1465 -40.46442,-8.2169 -8.45745,41.6487 -25.33138,-5.1439 z"
                 style="font-style:normal;font-variant:normal;font-weight:bold;font-stretch:normal;font-size:137.5px;font-family:sans-serif;-inkscape-font-specification:'sans-serif Bold';text-align:center;text-anchor:middle;fill:#ffd42a;fill-opacity:1;stroke:#000000;stroke-width:3;stroke-miterlimit:4;stroke-dasharray:none"
                 id="path3913"
                 inkscape:connector-curvature="0" /><path
                 d="m 317.55114,2034.8952 q 8.05962,1.019 11.90222,-1.5405 3.90921,-2.551 4.7766,-9.4117 0.85898,-6.7941 -2.30073,-10.1712 -3.0931,-3.3686 -11.15272,-4.3876 l -10.79056,-1.3643 -3.22537,25.511 z m -13.03064,16.3536 -4.75805,37.6338 -25.64424,-3.2423 12.57304,-99.4463 39.16576,4.9517 q 19.64948,2.4843 27.94113,10.2322 8.35825,7.7564 6.55608,22.0106 -1.24635,9.8581 -6.84219,15.5795 -5.52922,5.7299 -15.49979,7.5146 5.11048,1.8643 8.70124,6.6493 3.66578,4.7269 6.84237,13.8584 l 10.35052,30.002 -27.30946,-3.4528 -8.99842,-26.2444 q -2.72027,-7.9233 -6.17168,-11.1342 -3.38479,-3.2026 -9.64599,-3.9942 z"
                 style="font-style:normal;font-variant:normal;font-weight:bold;font-stretch:normal;font-size:137.5px;font-family:sans-serif;-inkscape-font-specification:'sans-serif Bold';text-align:center;text-anchor:middle;fill:#ffd42a;fill-opacity:1;stroke:#000000;stroke-width:3;stroke-miterlimit:4;stroke-dasharray:none"
                 id="path3915"
                 inkscape:connector-curvature="0" /><path
                 d="m 386.69725,1998.1707 69.56136,5.2219 -1.46252,19.4825 -43.7855,-3.2869 -1.39718,18.6122 41.17443,3.0909 -1.46253,19.4825 -41.17443,-3.0909 -1.71884,22.897 45.2584,3.3975 -1.46253,19.4825 -71.03426,-5.3324 z"
                 style="font-style:normal;font-variant:normal;font-weight:bold;font-stretch:normal;font-size:137.5px;font-family:sans-serif;-inkscape-font-specification:'sans-serif Bold';text-align:center;text-anchor:middle;fill:#ffd42a;fill-opacity:1;stroke:#000000;stroke-width:3;stroke-miterlimit:4;stroke-dasharray:none"
                 id="path3917"
                 inkscape:connector-curvature="0" /><path
                 d="m 475.86789,2004.3102 25.83761,0.7462 -2.32975,80.6671 45.36682,1.3102 -0.56402,19.5292 -71.20444,-2.0564 z"
                 style="font-style:normal;font-variant:normal;font-weight:bold;font-stretch:normal;font-size:137.5px;font-family:sans-serif;-inkscape-font-specification:'sans-serif Bold';text-align:center;text-anchor:middle;fill:#ffd42a;fill-opacity:1;stroke:#000000;stroke-width:3;stroke-miterlimit:4;stroke-dasharray:none"
                 id="path3919"
                 inkscape:connector-curvature="0" /><path
                 d="m 621.01175,2087.2389 -40.41156,0.6918 -6.06467,18.3682 -25.97886,0.4447 35.40653,-100.8588 30.81213,-0.5275 38.83797,99.5879 -25.97886,0.4447 z m -34.28552,-18.0132 27.4557,-0.47 -14.3769,-39.6401 z"
                 style="font-style:normal;font-variant:normal;font-weight:bold;font-stretch:normal;font-size:137.5px;font-family:sans-serif;-inkscape-font-specification:'sans-serif Bold';text-align:center;text-anchor:middle;fill:#ffd42a;fill-opacity:1;stroke:#000000;stroke-width:3;stroke-miterlimit:4;stroke-dasharray:none"
                 id="path3921"
                 inkscape:connector-curvature="0" /><path
                 d="m 637.76712,2005.0076 92.19458,-5.8944 1.24656,19.4976 -33.16593,2.1204 5.14902,80.5362 -25.79573,1.6493 -5.14901,-80.5363 -33.23293,2.1247 z"
                 style="font-style:normal;font-variant:normal;font-weight:bold;font-stretch:normal;font-size:137.5px;font-family:sans-serif;-inkscape-font-specification:'sans-serif Bold';text-align:center;text-anchor:middle;fill:#ffd42a;fill-opacity:1;stroke:#000000;stroke-width:3;stroke-miterlimit:4;stroke-dasharray:none"
                 id="path3923"
                 inkscape:connector-curvature="0" /><path
                 d="m 739.66417,1997.7315 25.72201,-2.5529 9.90009,99.7479 -25.72201,2.5529 z"
                 style="font-style:normal;font-variant:normal;font-weight:bold;font-stretch:normal;font-size:137.5px;font-family:sans-serif;-inkscape-font-specification:'sans-serif Bold';text-align:center;text-anchor:middle;fill:#ffd42a;fill-opacity:1;stroke:#000000;stroke-width:3;stroke-miterlimit:4;stroke-dasharray:none"
                 id="path3925"
                 inkscape:connector-curvature="0" /><path
                 d="m 775.18262,1994.7537 25.7425,-3.5246 36.37749,69.6964 16.23832,-76.9003 25.7425,-3.5246 -23.18719,104.3479 -30.53181,4.1803 z"
                 style="font-style:normal;font-variant:normal;font-weight:bold;font-stretch:normal;font-size:137.5px;font-family:sans-serif;-inkscape-font-specification:'sans-serif Bold';text-align:center;text-anchor:middle;fill:#ffd42a;fill-opacity:1;stroke:#000000;stroke-width:3;stroke-miterlimit:4;stroke-dasharray:none"
                 id="path3927"
                 inkscape:connector-curvature="0" /><path
                 d="m 888.66118,1978.3074 25.46575,-4.4311 17.18358,98.7541 -25.46574,4.4312 z"
                 style="font-style:normal;font-variant:normal;font-weight:bold;font-stretch:normal;font-size:137.5px;font-family:sans-serif;-inkscape-font-specification:'sans-serif Bold';text-align:center;text-anchor:middle;fill:#ffd42a;fill-opacity:1;stroke:#000000;stroke-width:3;stroke-miterlimit:4;stroke-dasharray:none"
                 id="path3929"
                 inkscape:connector-curvature="0" /><path
                 d="m 924.31808,1972.4703 90.45862,-18.757 3.9668,19.1304 -32.54147,6.7476 16.38507,79.0198 -25.30995,5.2482 -16.38512,-79.0198 -32.60717,6.7612 z"
                 style="font-style:normal;font-variant:normal;font-weight:bold;font-stretch:normal;font-size:137.5px;font-family:sans-serif;-inkscape-font-specification:'sans-serif Bold';text-align:center;text-anchor:middle;fill:#ffd42a;fill-opacity:1;stroke:#000000;stroke-width:3;stroke-miterlimit:4;stroke-dasharray:none"
                 id="path3931"
                 inkscape:connector-curvature="0" /><path
                 d="m 1010.1159,1954.8623 27.416,-6.8774 30.8317,29.0902 13.4505,-40.1985 27.4811,-6.8937 -22.9397,65.5596 10.2752,40.9611 -25.0715,6.2893 -10.2753,-40.9611 z"
                 style="font-style:normal;font-variant:normal;font-weight:bold;font-stretch:normal;font-size:137.5px;font-family:sans-serif;-inkscape-font-specification:'sans-serif Bold';text-align:center;text-anchor:middle;fill:#ffd42a;fill-opacity:1;stroke:#000000;stroke-width:3;stroke-miterlimit:4;stroke-dasharray:none"
                 id="path3933"
                 inkscape:connector-curvature="0" /></g><path
               style="fill:none;fill-rule:evenodd;stroke:#4d4d4d;stroke-width:1px;stroke-linecap:butt;stroke-linejoin:miter;stroke-opacity:1"
               d="m 10.9126,1616.1479 c 390.64865,-129.8014 754.45375,-104.6094 1120,0"
               id="path3937"
               inkscape:connector-curvature="0"
               sodipodi:nodetypes="cc" /><path
               style="fill:none;fill-rule:evenodd;stroke:#4d4d4d;stroke-width:1px;stroke-linecap:butt;stroke-linejoin:miter;stroke-opacity:1"
               d="m -29.0874,2016.1479 c 404.91315,125.2853 804.50286,114.823 1200,0"
               id="path3939"
               inkscape:connector-curvature="0"
               sodipodi:nodetypes="cc" /><g
               transform="translate(30.828172,-36.9605)"
               style="font-style:normal;font-weight:normal;font-size:40px;line-height:125%;font-family:sans-serif;letter-spacing:0px;word-spacing:0px;fill:#c83737;fill-opacity:1;stroke:#000000;stroke-width:5;stroke-linecap:butt;stroke-linejoin:miter;stroke-miterlimit:4;stroke-dasharray:none;stroke-opacity:1"
               id="g3951"><path
                 d="m 113.08736,1698.1278 h 126.83106 v 35.5225 h -79.83399 v 33.9355 h 75.07325 v 35.5225 h -75.07325 v 41.748 h 82.51954 v 35.5225 H 113.08736 Z"
                 style="font-style:normal;font-variant:normal;font-weight:bold;font-stretch:normal;font-size:250px;font-family:sans-serif;-inkscape-font-specification:'sans-serif Bold';fill:#c83737;fill-opacity:1;stroke:#000000;stroke-width:5;stroke-miterlimit:4;stroke-dasharray:none"
                 id="path3941"
                 inkscape:connector-curvature="0" /><path
                 d="m 287.52584,1759.8954 h 156.49414 v 28.6865 H 287.52584 Z m 0,55.542 h 156.49414 v 28.9306 H 287.52584 Z"
                 style="font-style:normal;font-variant:normal;font-weight:bold;font-stretch:normal;font-size:250px;font-family:sans-serif;-inkscape-font-specification:'sans-serif Bold';fill:#c83737;fill-opacity:1;stroke:#000000;stroke-width:5;stroke-miterlimit:4;stroke-dasharray:none"
                 id="path3943"
                 inkscape:connector-curvature="0" /><path
                 d="m 618.21432,1766.3651 q 8.30078,-12.6953 19.65332,-19.2871 11.47461,-6.7139 25.14648,-6.7139 23.55957,0 35.88867,14.5264 12.32911,14.5264 12.32911,42.2363 v 83.252 h -43.94532 v -71.2891 q 0.12207,-1.5869 0.12207,-3.2959 0.12207,-1.709 0.12207,-4.8828 0,-14.5264 -4.27246,-20.9961 -4.27246,-6.5918 -13.79394,-6.5918 -12.45117,0 -19.28711,10.2539 -6.71387,10.2539 -6.95801,29.6631 v 67.1387 h -43.94531 v -71.2891 q 0,-22.7051 -3.90625,-29.1748 -3.90625,-6.5918 -13.91602,-6.5918 -12.57324,0 -19.40918,10.376 -6.83594,10.2539 -6.83594,29.4189 v 67.2608 H 491.26119 V 1743.66 h 43.94531 v 20.0196 q 8.05665,-11.5967 18.43262,-17.4561 10.49805,-5.8594 23.07129,-5.8594 14.16016,0 25.02442,6.836 10.86425,6.8359 16.47949,19.165 z"
                 style="font-style:normal;font-variant:normal;font-weight:bold;font-stretch:normal;font-size:250px;font-family:sans-serif;-inkscape-font-specification:'sans-serif Bold';fill:#c83737;fill-opacity:1;stroke:#000000;stroke-width:5;stroke-miterlimit:4;stroke-dasharray:none"
                 id="path3945"
                 inkscape:connector-curvature="0" /><path
                 d="m 862.72115,1747.9325 v 35.6445 q -8.91113,-6.1035 -17.94433,-9.0332 -8.91114,-2.9297 -18.55469,-2.9297 -18.31055,0 -28.56445,10.7422 -10.13184,10.6201 -10.13184,29.7852 0,19.165 10.13184,29.9072 10.2539,10.6201 28.56445,10.6201 10.25391,0 19.40918,-3.0517 9.27734,-3.0518 17.08984,-9.0332 v 35.7666 q -10.2539,3.7841 -20.87402,5.6152 -10.49805,1.9531 -21.11816,1.9531 -36.98731,0 -57.86133,-18.9209 -20.87403,-19.0429 -20.87403,-52.8564 0,-33.8135 20.87403,-52.7344 20.87402,-19.043 57.86133,-19.043 10.74218,0 21.11816,1.9532 10.49805,1.831 20.87402,5.6152 z"
                 style="font-style:normal;font-variant:normal;font-weight:bold;font-stretch:normal;font-size:250px;font-family:sans-serif;-inkscape-font-specification:'sans-serif Bold';fill:#c83737;fill-opacity:1;stroke:#000000;stroke-width:5;stroke-miterlimit:4;stroke-dasharray:none"
                 id="path3947"
                 inkscape:connector-curvature="0" /><path
                 d="m 915.36764,1739.9149 h 34.45361 v 14.8408 h -56.89827 v -14.8408 l 28.58024,-25.224 q 3.82817,-3.461 5.6636,-6.7648 1.83543,-3.3038 1.83543,-6.8698 0,-5.5062 -3.7233,-8.8624 -3.67085,-3.3562 -9.80642,-3.3562 -4.71968,0 -10.33085,2.0451 -5.61116,1.9927 -12.00894,5.9783 v -17.2006 q 6.81731,-2.255 13.47729,-3.4087 6.65998,-1.2061 13.05776,-1.2061 14.05413,0 21.81537,6.188 7.81368,6.188 7.81368,17.253 0,6.3978 -3.30377,11.9565 -3.30377,5.5063 -13.89682,14.7884 z"
                 style="font-style:normal;font-variant:normal;font-weight:bold;font-stretch:normal;font-size:180px;font-family:sans-serif;-inkscape-font-specification:'sans-serif Bold';baseline-shift:super;fill:#c83737;fill-opacity:1;stroke:#000000;stroke-width:2.9833;stroke-miterlimit:4;stroke-dasharray:none"
                 id="path3949"
                 inkscape:connector-curvature="0" /></g></g></g></g></g><g
       id="ic_Sale"
       transform="matrix(2.966863,0,0,2.966863,335.71324,346.77694)"
       style="fill:none"><path
         id="Combined-Shape"
         d="M 13,27 H 7 A 2,2 0 0 1 5,25 V 7 A 2,2 0 0 1 7,5 h 10 l 4,4 v 2.25 M 17,5 v 4 h 4 M 9,12.75 h 6 m -6,4 h 5 m -5,4 h 3 M 20,22 h 4 m -2,-2 v 4 m 0,4 a 6,6 0 1 0 0,-12 6,6 0 0 0 0,12 z"
         stroke="#111619"
         stroke-width="1.5"
         stroke-linecap="round"
         stroke-linejoin="round"
         style="fill:none" /></g><g
       id="ic_Sale-4"
       transform="matrix(2.966863,0,0,2.966863,416.63189,348.51907)"
       style="fill:none"><path
         id="Combined-Shape-4"
         d="M 13,27 H 7 A 2,2 0 0 1 5,25 V 7 A 2,2 0 0 1 7,5 h 10 l 4,4 v 2.25 M 17,5 v 4 h 4 M 9,12.75 h 6 m -6,4 h 5 m -5,4 h 3 M 20,22 h 4 m -2,-2 v 4 m 0,4 a 6,6 0 1 0 0,-12 6,6 0 0 0 0,12 z"
         stroke="#111619"
         stroke-width="1.5"
         stroke-linecap="round"
         stroke-linejoin="round"
         style="fill:none" /></g><g
       id="ic_Sale-3"
       transform="matrix(2.966863,0,0,2.966863,252.45856,348.51907)"
       style="fill:none"><path
         id="Combined-Shape-1"
         d="M 13,27 H 7 A 2,2 0 0 1 5,25 V 7 A 2,2 0 0 1 7,5 h 10 l 4,4 v 2.25 M 17,5 v 4 h 4 M 9,12.75 h 6 m -6,4 h 5 m -5,4 h 3 M 20,22 h 4 m -2,-2 v 4 m 0,4 a 6,6 0 1 0 0,-12 6,6 0 0 0 0,12 z"
         stroke="#111619"
         stroke-width="1.5"
         stroke-linecap="round"
         stroke-linejoin="round"
         style="fill:none" /></g><g
       id="g4204"
       transform="matrix(0.09884339,0,0,0.09884339,441.34359,225.69983)"><path
         sodipodi:nodetypes="ccccccccccccccccccccccccccccccccccccccccccccccccccccccccccccccccccccc"
         inkscape:connector-curvature="0"
         id="rect4255"
         d="m -941.77665,-167.10752 v 0.97461 c 0.2375,-0.25 0.7245,-0.73711 0.9745,-0.97461 z m 728.9745,6.5625 c -239.7,150.6375 -479.2875,301.4625 -719.3125,451.5625 21.2375,1.4375 42.56287,0.38789 63.838,0.52539 14.88162,0.20573 29.76275,0.18535 44.6445,0.0763 0.075,7.90338 0.1255,15.80677 0.21287,23.72266 7.4875,0.05 14.97463,0.0887 22.47463,0.0762 -0.125,9.9875 -0.1,19.97461 0.025,29.97461 -0.1375,9.9875 -0.16375,19.97578 -0.025,29.98828 -7.5,-0.025 -15,-0.0129 -22.5,0.0371 -0.075,7.475 -0.075,14.92461 0,22.41211 5.8125,0.075 11.62612,0.0871 17.45112,0.16212 0.0375,12.4375 0.0375,24.88711 0.0625,37.34961 5.8125,0.0625 11.625,0.0516 17.4375,0.1015 0.0625,182.4625 0.0487,364.936 0.0125,547.39842 -5.8125,0.05 -11.62387,0.027 -17.42387,0.10163 -0.175,12.4625 -0.13738,24.93749 -0.0375,37.43749 v 0 c -6.65,-0.025 -13.309,-0.013 -19.959,0.037 -0.1375,10.8 -0.16613,21.6254 -0.0412,32.4629 -7.5,-0.037 -14.98713,-0.039 -22.47463,0.023 -0.15,16.6494 -0.0625,33.3129 -0.025,49.9747 -10.82501,-0.062 -21.64963,-0.053 -32.47463,0.047 -0.1125,12.8875 -0.13862,25.7879 -0.025,38.7129 451.2375,0 902.489125,10e-4 1353.72662,-0.012 0.0875,-12.9125 0.075,-25.8138 0,-38.7013 -5.2125,-0.069 -10.428,-0.1 -15.63862,-0.1037 -5.211,0 -10.41763,0.024 -15.61138,0.066 0.1375,-16.6617 -0.0138,-33.3234 -0.0138,-49.9727 -5.63137,-0.044 -11.2555,-0.07 -16.877,-0.076 -5.622,-0.01 -11.24062,0.01 -16.8595,0.039 0.0875,-10.8375 0.0875,-21.6511 0,-32.4511 -8.35,-0.1125 -16.71349,-0.1238 -25.0135,-0.049 0.17501,-12.4875 0.0275,-24.97499 -0.0125,-37.43749 -6.66249,-0.05 -13.31324,-0.089 -19.92574,-0.1015 -0.0625,-182.05002 -0.0625,-364.09847 0,-546.14848 6.625,-0.0375 13.26249,-0.0758 19.9375,-0.11324 0.025,-12.8875 -2.5e-4,-25.76173 0.0512,-38.63673 7.05,-0.05 14.09924,-0.0879 21.19925,-0.0879 0.0625,-7.48751 0.0512,-14.96328 0.0137,-22.42578 -4.59362,-0.0438 -9.18299,-0.0684 -13.7655,-0.0763 -4.583,-0.007 -9.1595,0.002 -13.7345,0.0272 0.1125,-10 0.0775,-20.00078 -0.0225,-29.98827 0.125,-9.99935 0.13688,-19.99949 0.0225,-29.98634 v 0 c 9.15,0.0375 18.31251,0.0254 27.5,-0.0371 0.075,-7.9125 0.0238,-15.81171 -0.0137,-23.69921 -4.52338,-0.0741 -8.875,-0.12437 -13.33401,-0.17384 1.3425,-10e-4 2.685,-3.6e-4 4.0275,-0.002 4.5125,0.05 8.91125,0.10075 13.48625,0.17579 12.6625,0.05 25.32625,-10e-4 38.01375,-0.20118 15.3125,0.21251 30.79913,1.08868 46.07413,-0.67382 -235.1025,-150.33525 -469.9405,-301.08625 -705.0905,-451.33625 z m 703.6935,1302.13272 c -6.041,0 -12.07825,0.013 -18.1095,0.043 -451.2375,0.013 -902.489,0.013 -1353.7265,0.013 -10,-0.062 -19.98637,-0.075 -29.98637,0.025 -0.1375,14.5625 -0.0762,29.1255 -0.0137,43.713 -4.58125,-0.037 -9.16088,-0.053 -13.74225,-0.047 -4.58113,0.013 -9.16288,0.033 -13.74413,0.082 -0.1375,11.6375 -0.11375,23.275 0.0125,34.9375 489.5625,0.075 979.125,0.05 1468.6875,0.014 0.1125,-11.6625 0.1025,-23.3243 -0.0125,-34.9493 -7.1125,-0.062 -14.18837,-0.087 -21.23837,-0.037 0.175,-14.5875 0,-29.1628 0,-43.7128 -6.04363,-0.05 -12.08638,-0.075 -18.12688,-0.08 z"
         style="opacity:1;fill:#a49064;fill-opacity:1;stroke:none;stroke-width:12;stroke-linecap:butt;stroke-linejoin:miter;stroke-miterlimit:4;stroke-dasharray:none;stroke-dashoffset:0;stroke-opacity:1" /><path
         inkscape:connector-curvature="0"
         id="path6"
         d="m -212.80215,-160.54502 c -239.7,150.6375 -479.2875,301.4625 -719.3125,451.5625 21.2375,1.4375 42.563,0.38789 63.838,0.52539 C -649.96415,149.61787 -431.3634,8.1045925 -212.8509,-133.50791 7.3616,7.2545925 226.57397,149.7542 446.2116,291.4667 c 15.3125,0.21251 30.79925,1.08867 46.07425,-0.67383 -235.1,-150.3375 -469.938,-301.08789 -705.088,-451.33789 z m 603.334,452.03711 c -404.3125,0.3125 -808.61325,0.12539 -1212.92575,0.0879 l -1.23825,0.0113 c 0.075,7.9125 0.12537,15.825 0.21287,23.75 7.4875,0.05 14.97463,0.0886 22.47463,0.0761 392.4875,-0.05 784.989,-0.0261 1177.4765,-0.0136 9.15,0.0375 18.3125,0.0254 27.5,-0.0371 0.075,-7.9125 0.0238,-15.81172 -0.0138,-23.69922 -4.575,-0.075 -8.97388,-0.12578 -13.48638,-0.17578 z m -0.2655,83.86133 c -4.583,-0.008 -9.1595,0.002 -13.7345,0.0274 -392.4875,0.0125 -784.989,0.025 -1177.4765,0 -7.5,-0.025 -15,-0.0129 -22.5,0.0371 -0.075,7.475 -0.075,14.92461 0,22.41211 5.8125,0.075 11.62613,0.0871 17.45113,0.16211 0.0375,12.4375 0.0375,24.88711 0.0625,37.34961 5.8125,0.0625 11.625,0.0515 17.4375,0.10151 0.0625,182.46249 0.0488,364.93594 0.0125,547.39842 -5.8125,0.05 -11.62388,0.0266 -17.42388,0.10163 -0.175,12.4625 -0.139,24.93749 -0.0388,37.43749 57.9125,0.038 115.82575,0.012 173.73825,0 0.0625,-12.4625 0.0363,-24.93869 -0.0512,-37.38869 -6.6375,-0.075 -13.2735,-0.1363 -19.8985,-0.1738 -0.075,-182.43753 -0.10125,-364.88869 0.0125,-547.32619 6.6125,-0.0875 13.23825,-0.16134 19.86325,-0.23634 0.0375,-12.4375 0.1,-24.86405 0.125,-37.28905 14.9625,-0.225 29.936,-0.2125 44.8985,0 0.025,12.85 0.0625,25.71289 0.0875,38.58789 5.8,0.075 11.58713,0.1 17.41213,0.1875 0.0875,182.025 0.0638,364.05116 0.0137,546.07619 -5.8,0.05 -11.62463,0.0484 -17.41213,0.1484 -0.125,12.4625 -0.16325,24.92659 -0.0513,37.41409 58.3375,0.012 116.6625,0.025 175,0 0.0625,-12.475 0.0375,-24.96409 -0.0375,-37.41409 -7.0625,-0.0625 -14.12462,-0.12425 -21.16212,-0.1367 -0.075,-182.45 -0.10125,-364.88789 0.0125,-547.33789 6.6125,-0.0875 13.23825,-0.17384 19.86325,-0.23634 0.0375,-12.4375 0.0863,-24.875 0.11125,-37.3125 136.6375,-0.075 273.27462,-0.114 409.91212,0.0235 0.0125,12.4375 0.0625,24.88789 0.0875,37.33789 5.8125,0.0625 11.574625,0.0883 17.412125,0.17577 0.075,182.425 0.0875,364.85039 0,547.27542 -4.6625,0.05 -13.986,0.1609 -18.6485,0.2109 -0.125,12.4625 -0.16325,24.92664 -0.05125,37.41414 58.3375,0.025 116.662505,0.013 175.000005,0 0.0625,-12.4625 0.0238,-24.93874 -0.0512,-37.38874 -6.65,-0.075 -13.286,-0.1363 -19.8985,-0.1738 -0.075,-182.43753 -0.10125,-364.88869 0.0125,-547.32619 6.59999,-0.0875 13.22575,-0.16134 19.86324,-0.23634 0.0375,-12.4375 0.0863,-24.87577 0.13676,-37.30077 12.86249,-0.2125 25.7375,-0.20078 38.62499,0.0113 0.025,12.4375 0.075,24.88788 0.10001,37.33788 5.8125,0.0625 11.56212,0.0883 17.41212,0.17578 0.075,182.425 0.0875,364.85039 0,547.27541 -4.6625,0.05 -13.986,0.1609 -18.6485,0.2109 -0.125,12.4625 -0.16325,24.92667 -0.0513,37.41417 58.325,0.013 116.64962,0.038 174.97463,0 0.175,-12.4875 0.0263,-24.97507 -0.0125,-37.43757 -6.6625,-0.05 -13.31325,-0.0891 -19.92575,-0.10162 -0.0625,-182.04998 -0.0625,-364.09843 0,-546.14843 6.625,-0.0375 13.2625,-0.0758 19.9375,-0.11325 0.025,-12.8875 7.5e-4,-25.76172 0.0513,-38.63672 7.05,-0.05 14.09925,-0.0879 21.19925,-0.0879 0.0625,-7.4875 0.0512,-14.96327 0.0137,-22.42577 -4.59375,-0.0437 -9.18275,-0.0684 -13.7655,-0.0761 z M -720.33528,435.3202 c 6.03275,-0.002 12.06601,0.0281 18.1035,0.10938 0.05,182.475 0.0375,364.95 0,547.43749 -12.075,0.0875 -24.13675,0.1383 -36.19925,-0.0113 -0.05,-182.47502 -0.0375,-364.96252 0,-547.43752 6.03125,-0.0562 12.06288,-0.0945 18.09575,-0.0976 z m 802.49413,0 c 6.034375,-0.002 12.071875,0.0281 18.10937,0.10938 0.0375,182.475 0.0375,364.95 0,547.43749 -12.087495,0.0875 -24.136745,0.1383 -36.199245,-0.0113 -0.05,-182.47502 -0.05,-364.96252 0,-547.43752 6.025,-0.0562 12.0555,-0.0945 18.089875,-0.0976 z m 212.5,0 c 6.03437,-0.002 12.07187,0.0281 18.10937,0.10938 0.0375,182.475 0.0375,364.95 0,547.43749 -12.0875,0.0875 -24.13675,0.1383 -36.19924,-0.0113 -0.05,-182.47502 -0.05,-364.96252 0,-547.43752 6.025,-0.0562 12.0555,-0.0945 18.08987,-0.0976 z m -795.61913,0.004 c 5.82338,0 11.64725,0.0312 17.4785,0.0937 0.05,182.48751 0.0375,364.96173 0,547.44922 -11.65,0.1 -23.29925,0.1125 -34.94925,0 -0.05,-182.48749 -0.0375,-364.96171 0,-547.44921 5.825,-0.0625 11.64725,-0.0937 17.47075,-0.0937 z m -184.959,0.0685 c 5.37501,-0.025 10.7875,-0.0125 16.1875,0 0.0375,182.5 0.0512,365 -0.0125,547.5 -5.39999,-0.05 -10.7875,0 -16.1875,0 -0.0375,-182.5 -0.0512,-365 0.0125,-547.5 z m 133.75,0 c 5.37501,-0.025 10.7875,-0.0125 16.1875,0 0.0375,182.5 0.0512,365 -0.0125,547.5 -5.4125,-0.05 -10.7875,0 -16.1875,0 -0.0375,-182.5 -0.0512,-365 0.0125,-547.5 z m 668.75001,0 c 5.34999,-0.025 10.7875,-0.0125 16.1875,0 0.0375,182.5 0.0513,365 -0.0125,547.5 -5.4375,-0.05 -10.7875,0 -16.1875,0 -0.0375,-182.5 -0.0513,-365 0.0125,-547.5 z m 212.5,0 c 5.33749,-0.025 10.7875,-0.0125 16.1875,0 0.0375,182.5 0.0512,365 -0.0125,547.5 -5.45,-0.05 -10.80001,0 -16.1875,0 -0.0375,-182.5 -0.0513,-365 0.0125,-547.5 z m -1100.01175,1.25 c 4.98749,-0.0125 9.96174,-0.0125 14.94925,0 0.0375,182.075 0.05,364.1625 0,546.25 -4.98751,-0.025 -9.97426,-0.025 -14.94925,0 -0.0375,-182.0875 -0.05,-364.1625 0,-546.25 z m 305,0 c 4.975,-0.0125 9.96175,-0.0125 14.94925,0 0.0375,182.075 0.05,364.1625 0,546.25 -5,-0.025 -9.97425,-0.025 -14.94925,0 -0.0375,-182.0875 -0.05,-364.1625 0,-546.25 z m 497.499995,0 c 4.9625,-0.0125 9.94925,-0.0125 14.94925,0 0.0375,182.075 0.05,364.1625 0,546.25 -5,-0.025 -9.98675,-0.025 -14.94925,0 -0.0375,-182.0875 -0.05,-364.1625 0,-546.25 z m 212.499995,0 c 4.96251,-0.0125 9.93675,-0.0125 14.94925,0 0.0375,182.075 0.05,364.1625 0,546.25 -5.0125,-0.025 -9.98675,-0.025 -14.94925,0 -0.0375,-182.0875 -0.05,-364.1625 0,-546.25 z m -458.15037,27.48047 c -56.45938,0 -112.91875,0.0258 -169.375,0.082 -0.0125,7.0125 -0.025,14.05038 -0.025,21.08788 1.8875,0.0375 5.63862,0.11288 7.51362,0.15039 107.92501,-0.0875 215.84851,-0.075 323.773505,0 1.875,-0.05 5.638625,-0.1375 7.513625,-0.1875 -0.025,-7.0375 -0.0375,-14.05 -0.025,-21.0625 -56.45625,-0.0438 -112.91562,-0.0703 -169.375,-0.0703 z m 638.72275,588.71873 c -5.622,-0.01 -11.24075,0.01 -16.8595,0.039 -411.2375,0.013 -822.489,0.025 -1233.7265,0 -7.5,-0.037 -14.98712,-0.039 -22.47462,0.023 -0.15,16.65 -0.0625,33.314 -0.025,49.9765 429.9875,0.025 859.976495,0.013 1289.97649,0.013 0.1375,-16.6625 -0.0137,-33.3246 -0.0137,-49.9746 -5.63126,-0.044 -11.25513,-0.07 -16.87688,-0.076 z m 66.25,88.746 c -6.04075,0 -12.07825,0.013 -18.1095,0.043 -451.2375,0.013 -902.489,0.013 -1353.7265,0.013 -10,-0.062 -19.98637,-0.075 -29.98637,0.025 -0.1375,14.5625 -0.0762,29.1254 -0.0137,43.7129 473.325,0.013 946.63787,0.025 1419.96287,0 0.175,-14.5875 0,-29.1629 0,-43.7129 -6.04375,-0.05 -12.08637,-0.075 -18.12687,-0.08 z"
         style="opacity:1;fill:#5b481c;fill-opacity:1" /><path
         sodipodi:nodetypes="ccccccccccccccccccccccccccccccccccccccccccccccccccccccccccccccccccccccccccccccccc"
         inkscape:connector-curvature="0"
         id="path10"
         d="m -212.9759,-93.431739 c -201.85,128.162494 -404.1258,255.774219 -605.2383,385.011719 404.3125,0.0375 808.6133,0.2246 1212.9258,-0.0879 C 192.7364,162.31709 -10.2009,34.505755 -212.9759,-93.431739 Z M -800.9193,345.39248 c -0.1375,9.9875 -0.1633,19.97577 -0.025,29.98827 392.4875,0.025 784.9891,0.0125 1177.47665,0 0.1125,-10 0.075,-20.00077 -0.025,-29.98827 z m 191.2129,52.41016 c -7.4844,-10e-4 -14.968,0.0515 -22.4492,0.16407 -0.025,12.425 -0.088,24.85155 -0.125,37.28905 -6.625,0.075 -13.2508,0.14883 -19.8633,0.23633 -0.1125,182.4375 -0.086,364.88865 -0.0125,547.32619 6.625,0.037 13.2609,0.099 19.8984,0.1738 0.088,12.45 0.11325,24.92622 0.051,37.38872 15,0.025 30,0.013 45,0 -0.1125,-12.4875 -0.074,-24.95162 0.051,-37.41412 5.7875,-0.1 11.6121,-0.098 17.4121,-0.1484 0.05,-182.02504 0.074,-364.05119 -0.014,-546.07619 -5.825,-0.0875 -11.6121,-0.1125 -17.4121,-0.1875 -0.025,-12.875 -0.063,-25.73788 -0.088,-38.58788 -7.4812,-0.10625 -14.9648,-0.1625 -22.4492,-0.16407 z m 799.3652,0 c -6.4375,-0.004 -12.8714,0.0461 -19.3027,0.15234 -0.05,12.425 -0.099,24.86328 -0.1367,37.30078 -6.6375,0.075 -13.2633,0.14883 -19.8633,0.23633 -0.1125,182.4375 -0.086,364.88865 -0.0125,547.32619 6.6125,0.037 13.2484,0.099 19.8984,0.1738 0.075,12.45 0.11325,24.92622 0.051,37.38872 12.4875,0.025 24.9875,0.013 37.5,0 -0.1125,-12.4875 -0.074,-24.95162 0.051,-37.41412 4.6625,-0.05 13.9859,-0.1609 18.6484,-0.2109 0.088,-182.42504 0.075,-364.85041 0,-547.27541 -5.85,-0.0875 -11.5996,-0.11325 -17.4121,-0.17578 -0.025,-12.45 -0.075,-24.90038 -0.1,-37.33788 -6.4437,-0.10625 -12.8848,-0.16095 -19.3223,-0.16407 z m -398.123,0.0722 c -68.3181,10e-4 -136.637,0.0309 -204.9551,0.0684 -0.025,12.4375 -0.074,24.875 -0.11125,37.3125 -6.625,0.0625 -13.2508,0.14882 -19.8633,0.23632 -0.1125,182.45 -0.086,364.88789 -0.0125,547.33789 7.0375,0.013 14.0996,0.074 21.1621,0.1367 0.075,12.45 0.1,24.93915 0.037,37.41415 16.2375,0.037 32.4754,0.1 48.7129,-0.025 0.037,-171.57505 0.1258,-343.16334 -0.037,-514.73834 l -12.3516,-0.5 c -0.037,-6.5625 -0.061,-13.12382 -0.086,-19.67382 -1.875,-0.0375 -5.6262,-0.11288 -7.5137,-0.15039 0,-7.0375 0.0112,-14.0754 0.023,-21.0879 112.9125,-0.1125 225.8375,-0.0997 338.75,-0.0113 -0.013,7.0125 8e-4,14.025 0.025,21.0625 -1.875,0.05 -5.6386,0.1375 -7.5136,0.1875 -0.037,6.55 -0.073,13.1125 -0.086,19.6875 -3.0875,0.1 -9.275,0.29845 -12.375,0.39845 -0.1,171.6125 -0.064,343.21367 -0.014,514.8262 19.9875,0.1625 39.9753,4e-4 59.9628,0.025 -0.1125,-12.4875 -0.074,-24.95162 0.051,-37.41412 4.6625,-0.05 13.986,-0.16091 18.6485,-0.21091 0.088,-182.42503 0.075,-364.85041 0,-547.27541 -5.8375,-0.0875 -11.5996,-0.11325 -17.4121,-0.17577 -0.025,-12.45 -0.075,-24.90039 -0.088,-37.33789 -68.3181,-0.0687 -136.6351,-0.0934 -204.9532,-0.0917 z m 665.60555,704.94926 v 0 c -5.211,0 -10.41575,0.023 -15.6095,0.066 -429.99995,0 -859.98905,0.014 -1289.97655,-0.013 -10.825,-0.062 -21.6496,-0.053 -32.4746,0.048 -0.1125,12.8875 -0.1383,25.7878 -0.025,38.7128 451.2375,0 902.4891,0 1353.72665,-0.013 0.0875,-12.9125 0.075,-25.8136 0,-38.7011 -5.2125,-0.069 -10.42987,-0.1 -15.64062,-0.1037 z M -924.6869,1185.334 c -4.5812,0.013 -9.1629,0.034 -13.7441,0.084 -0.1375,11.6375 -0.1133,23.275 0.012,34.9375 489.5625,0.075 979.125,0.049 1468.68748,0.013 0.11249,-11.6625 0.10124,-23.3242 -0.0125,-34.9492 -7.11251,-0.062 -14.18825,-0.088 -21.23826,-0.037 -473.32502,0.025 -946.63792,0.012 -1419.96292,0 -4.5812,-0.038 -9.1609,-0.053 -13.7422,-0.048 z"
         style="opacity:1;fill:#caaf7e;fill-opacity:1" /><g
         id="g6608"><path
           style="fill:#2c5928;fill-opacity:1"
           d="m -214.08727,512.88076 c -42.69688,-10e-4 -85.39376,0.0125 -128.09375,0.0371 -0.0375,169.15 -0.0525,338.30001 0.0125,507.43754 85.38751,0.062 170.7875,0.05 256.187505,0.012 0.0375,-169.15003 0.0525,-338.30001 -0.0125,-507.43751 -42.700005,-0.0312 -85.396875,-0.0473 -128.093755,-0.0488 z"
           id="path4233"
           inkscape:connector-curvature="0"
           sodipodi:nodetypes="sccccs" /><path
           style="fill:#51744d;fill-opacity:1"
           d="m -214.08727,512.88076 c -42.69688,-10e-4 -85.39376,0.0125 -128.09375,0.0371 -0.0375,169.15 -0.0513,338.30001 0.0125,507.43754 85.38751,0.062 170.7875,0.049 256.187505,0.011 0.0375,-169.14998 0.05125,-338.29996 -0.0125,-507.43746 -42.700005,-0.0312 -85.396875,-0.0473 -128.093755,-0.0489 z m -59.36913,28.73438 c 15.40937,-0.005 30.81838,0.009 46.22462,0.0528 0.0375,37.9 0.0625,75.79923 0,113.69923 -30.825,0.0375 -61.63675,0.075 -92.44925,0 -0.05,-37.9 -0.0625,-75.79923 0,-113.69923 15.40625,-0.025 30.81526,-0.048 46.22463,-0.0528 z m 112.5,0 c 15.40937,-0.005 30.81838,0.009 46.22462,0.0528 0.0375,37.9 0.0625,75.79923 0,113.69923 -30.825,0.0375 -61.63675,0.075 -92.44924,0 -0.05,-37.9 -0.0625,-75.79923 0,-113.69923 15.40625,-0.025 30.81524,-0.048 46.22462,-0.0528 z m -112.5,135 c 15.40937,-0.005 30.81838,0.009 46.22462,0.0528 0.0375,39.9875 0.05,79.96173 0,119.94923 -30.825,0.0375 -61.63675,0.075 -92.44925,0 -0.05,-39.9875 -0.0625,-79.97423 0,-119.94923 15.40625,-0.025 30.81526,-0.048 46.22463,-0.0528 z m 112.5,0 c 15.40937,-0.005 30.81838,0.009 46.22462,0.0528 0.0375,39.9875 0.05,79.96173 0,119.94923 -30.825,0.0375 -61.63675,0.075 -92.44924,0 -0.05,-39.9875 -0.0625,-79.97423 0,-119.94923 15.40625,-0.025 30.81524,-0.048 46.22462,-0.0528 z m -112.5,132.50586 c 15.40937,-0.006 30.81838,0.003 46.22462,0.0469 0.0375,63.73751 0.05,127.46171 0,191.1992 -30.825,0.037 -61.63675,0.075 -92.44925,0 -0.0375,-63.73749 -0.05,-127.47419 0,-191.1992 15.40625,-0.0187 30.81526,-0.0406 46.22463,-0.0469 z m 112.5,0 c 15.40937,-0.006 30.81838,0.003 46.22462,0.0469 0.0375,63.73751 0.05,127.46171 0,191.1992 -30.825,0.037 -61.63675,0.075 -92.44924,0 -0.0375,-63.73749 -0.05,-127.47419 0,-191.1992 15.40625,-0.0187 30.81524,-0.0406 46.22462,-0.0469 z"
           id="path60"
           inkscape:connector-curvature="0" /><path
           style="fill:#3f6b3b;fill-opacity:1"
           d="m -273.45053,547.86318 c -12.90625,10e-4 -25.8125,0.0226 -38.71875,0.0664 -0.075,33.3125 -0.0612,66.625 -0.0125,99.9375 25.8125,0.0625 51.625,0.0633 77.4375,-0.0112 0.075,-33.3125 0.0613,-66.62499 0.0125,-99.9375 -12.90625,-0.0375 -25.8125,-0.0563 -38.71875,-0.0548 z m 112.5,0 c -12.90625,10e-4 -25.8125,0.0226 -38.71875,0.0664 -0.075,33.3125 -0.0613,66.625 -0.0125,99.9375 25.8125,0.0625 51.625,0.0633 77.4375,-0.0112 0.075,-33.3125 0.0613,-66.62499 0.0125,-99.9375 -12.90625,-0.0375 -25.8125,-0.0563 -38.71875,-0.0548 z M -273.4564,684.11514 c -12.90937,10e-4 -25.81838,0.0215 -38.72462,0.0528 -0.075,34.975 -0.0375,69.96173 0,104.94923 25.81249,0.0625 51.62424,0.05 77.44924,0 0.075,-34.9875 0.0375,-69.97423 0,-104.94923 -12.90625,-0.0375 -25.81525,-0.0543 -38.72462,-0.0528 z m 112.49612,0 c -12.90787,10e-4 -25.8145,0.0215 -38.72074,0.0528 -0.075,34.975 -0.0375,69.96173 0,104.94923 25.81249,0.0625 51.62424,0.05 77.44924,0 0.075,-34.9875 0.0375,-69.97423 0,-104.94923 -12.9125,-0.0375 -25.82075,-0.0543 -38.7285,-0.0528 z m -112.49612,136.25 c -12.90937,10e-4 -25.81838,0.0215 -38.72462,0.0528 -0.0625,55.81251 -0.0375,111.62421 0,167.44922 25.81249,0.0625 51.62424,0.05 77.44924,0 0.0625,-55.8125 0.0375,-111.6367 0,-167.44922 -12.90625,-0.0375 -25.81525,-0.0543 -38.72462,-0.0528 z m 111.877,0.003 c -13.11412,0.002 -26.22737,0.025 -39.33987,0.0625 -0.075,56.22499 -0.0487,112.44999 -0.0125,168.68749 26.225,0.0625 52.45,0.0507 78.6875,-0.0113 0.075,-56.225 0.0487,-112.4625 0.0125,-168.68751 -13.11875,-0.0375 -26.23363,-0.0539 -39.34763,-0.0507 z"
           id="path66"
           inkscape:connector-curvature="0" /></g><path
         inkscape:connector-curvature="0"
         id="path85"
         d="m -103.61421,11.244339 c -19.8723,-0.02808 -40.6613,4.93999 -55.2522,17.03711 -53.3178,-22.3800814 -123.8069,-11.435032 -162.4769,27.877649 -12.4571,12.515411 -21.5506,27.622558 -25.4934,43.784462 -14.5882,-4.58572 -19.2314,-23.830539 -6.4291,-32.171877 5.9272,-4.670155 14.6275,-4.162512 21.5714,-6.666016 6.9728,-4.773246 2.6434,-16.72461 -6.7174,-16.006493 -25.8032,-1.330014 -48.4461,21.749418 -42.9551,43.419272 2.923,14.067864 15.8031,26.514204 32.1329,29.757144 -0.9084,22.15538 9.6817,43.26564 23.1026,61.6793 5.1526,11.40734 -0.3817,23.39665 -3.899,34.50429 -0.9496,10.99885 9.531,19.83584 20.5068,23.84376 15.2251,6.38187 33.0225,8.77236 49.6659,5.88415 9.1726,-2.28358 16.7688,-9.39006 17.2936,-17.76306 0.9461,-3.3627 5.138,-5.87493 9.0559,-4.47201 10.622,1.07953 21.3853,0.2576 31.9712,0.099 5.9228,1.66234 4.5981,7.94961 7.3849,11.75 3.4567,6.41002 10.927,10.79714 19.106,11.33008 16.9863,2.25874 34.5448,-1.68866 49.4993,-8.57943 9.5427,-4.56005 18.4964,-13.35168 16.1754,-23.38541 -1.8588,-7.83433 -7.0342,-15.04935 -5.5371,-23.25782 0.7189,-10.77539 9.3203,-23.05401 23.022704,-23.48619 9.4055,-0.0474 19.9529,0.10358 27.427,-5.70736 15.4915,-10.69317 20.7744,-29.02587 19.4634,-45.45684 -0.9917,-14.65494 -7.5666,-30.645967 -22.8132,-38.585936 -6.6309,-3.479059 -14.6226,-3.714102 -22.0341,-4.078644 -6.4039,-0.853702 -12.930104,-3.013229 -17.272104,-7.317841 12.794804,-11.506899 23.147304,-26.784251 22.234304,-43.158203 -1.8122,-7.137803 -10.7583,-11.135227 -18.733704,-10.873047 z m -3.0466,19.306641 c -4.1322,11.670981 -13.4672,21.524363 -24.332,29.126953 -4.1312,5.790597 1.2906,12.37265 6.1771,16.3125 11.0445,10.388674 27.596804,15.785091 43.817204,15.607422 10.8981,3.554645 13.3469,14.733355 14.7888,23.487965 1.3503,11.39525 -1.5193,24.7075 -12.7275,32.08235 -4.475,1.49761 -9.7418,0.91683 -14.1252,0.83789 2.7183,-5.45281 1.5245,-13.90065 -6.2271,-15.57617 -7.428504,-1.67834 -14.448204,4.37811 -14.492104,10.58875 -6.2408,16.97182 -19.0298,31.75198 -35.55,42.34289 -5.9368,6.07206 1.7586,16.72711 10.7609,14.41601 1.0982,-0.11615 3.4557,-1.82595 2.9535,0.084 1.125,5.66899 4.0567,11.08098 4.9149,16.7168 -7.9752,8.36344 -21.4969,9.32353 -32.9973,11.10546 -5.3053,0.56044 -12.8546,-0.75494 -13.2398,-6.41015 -0.4251,-1.30368 -2.4283,-4.00069 0.3632,-4.08008 7.7137,-2.81375 9.045,-14.27591 0.3519,-16.78516 -8.6383,-2.78208 -16.8714,2.77051 -25.4762,2.94727 -19.9552,2.71465 -40.2171,-0.70769 -59.3135,-5.64453 -9.6218,0.67341 -12.5043,14.02315 -3.5143,17.37695 1.2512,1.07891 5.4105,0.16685 3.3576,2.46875 -1.0801,3.65605 -1.7502,9.49246 -7.6564,9.32098 -12.8201,1.57299 -26.2772,-2.20095 -37.1891,-7.77215 -3.0336,-2.24749 -2.9402,-6.1858 -0.7401,-8.84375 1.6351,-3.95284 2.3067,-8.13325 3.6596,-12.1543 6.8944,3.25008 17.2864,-1.71724 15.6485,-8.88476 -1.3587,-7.60712 -11.2647,-10.23655 -16.0879,-15.9027 -25.8219,-24.03378 -32.9291,-62.65687 -13.1886,-91.198868 21.3269,-33.195469 67.9283,-51.315776 110.9992,-46.490234 16.578,1.56574 32.7765,6.191727 47.4698,13.009766 7.9258,1.360422 12.0186,-5.943366 17.1695,-9.560547 9.8225,-6.536715 22.5314,-9.143391 34.775,-9.519531 l -0.2128,0.602805 -0.1368,0.387429 z"
         style="fill:#5b481c;fill-opacity:1" /><path
         inkscape:connector-curvature="0"
         id="path4182"
         d="m -109.57031,26.285156 c -17.17988,0.114142 -32.19609,9.750483 -46.24219,18.5625 -25.66146,-8.240882 -52.86413,-16.129 -79.98905,-11.909702 -33.7501,3.705653 -67.36737,20.973464 -85.33517,50.556187 -15.71729,25.777359 -11.39186,60.762579 7.61574,83.657149 5.85314,7.86666 14.29352,13.21935 20.55223,20.6573 1.47742,1.8566 2.68422,5.20616 -0.44727,6.13477 -4.69413,2.19377 -12.1828,1.02853 -14.05279,7.2329 -3.12544,6.24202 -5.15475,15.10448 0.31647,20.65186 6.65156,5.15184 15.50874,5.46104 23.11089,8.27107 8.79985,1.88694 20.14222,0.74344 25.17817,-7.71052 2.12342,-5.18595 -2.00583,-10.39709 -6.36524,-12.7539 -2.93317,-4.21302 2.4677,-10.07807 6.97031,-7.5342 21.31215,5.40335 43.60331,6.34377 65.3461,3.20021 5.56289,-0.24648 11.40258,-1.77966 16.80664,-0.46094 3.17237,2.71054 1.63105,8.01947 -1.875,9.66407 -5.07736,4.55441 -2.09041,13.52799 4.19922,15.24804 9.19538,3.02253 18.83187,-0.56253 28.06104,-1.65093 7.84733,-1.11875 16.84498,-6.6844 16.82177,-15.45063 0.51091,-7.49467 -4.00446,-16.8317 -12.39648,-17.13086 -3.47694,0.94614 -8.24824,-3.27279 -5.02735,-6.61914 3.53828,-3.45778 7.64744,-6.30334 10.92969,-10.06445 11.91988,-11.75179 21.81901,-25.66713 28.4082,-41.05469 3.50875,-3.6146 11.618143,-1.28021 10.570318,4.42578 0.124357,5.16304 4.379278,11.17474 10.140624,9.67578 14.116816,-1.32778 23.817283,-15.85377 23.388672,-29.37109 0.860029,-11.67701 -2.638664,-25.573394 -13.939453,-31.195314 -12.616094,-6.465049 -28.871071,-3.842945 -39.775081,-13.920182 -4.4527,-3.495272 -10.78618,-6.581014 -11.85578,-12.667708 1.58108,-4.958971 6.93337,-7.165962 9.84766,-11.226563 7.01482,-6.923891 13.97137,-14.996941 15.52734,-25.078125 -1.9613,-1.179713 -4.15689,-2.172007 -6.49023,-2.138672 z"
         style="opacity:1;fill:#a49064;fill-opacity:1;stroke:none;stroke-width:12;stroke-linecap:butt;stroke-linejoin:miter;stroke-miterlimit:4;stroke-dasharray:none;stroke-dashoffset:0;stroke-opacity:1" /></g></g><metadata
     id="metadata23"><rdf:RDF><cc:Work><dc:format>image/svg+xml</dc:format><dc:type
           rdf:resource="http://purl.org/dc/dcmitype/StillImage" /><cc:license
           rdf:resource="http://creativecommons.org/publicdomain/zero/1.0/" /><dc:publisher><cc:Agent
             rdf:about="http://openclipart.org/"><dc:title>Openclipart</dc:title></cc:Agent></dc:publisher><dc:date>2012-01-07T08:22:20</dc:date><dc:description>Help desk</dc:description><dc:source>https://openclipart.org/detail/166905/help-desk-by-gsagri04</dc:source><dc:creator><cc:Agent><dc:title>gsagri04</dc:title></cc:Agent></dc:creator><dc:subject><rdf:Bag><rdf:li>Help</rdf:li><rdf:li>care</rdf:li><rdf:li>corporate</rdf:li><rdf:li>customer</rdf:li><rdf:li>desk</rdf:li><rdf:li>office</rdf:li><rdf:li>reception</rdf:li></rdf:Bag></dc:subject></cc:Work><cc:License
         rdf:about="http://creativecommons.org/publicdomain/zero/1.0/"><cc:permits
           rdf:resource="http://creativecommons.org/ns#Reproduction" /><cc:permits
           rdf:resource="http://creativecommons.org/ns#Distribution" /><cc:permits
           rdf:resource="http://creativecommons.org/ns#DerivativeWorks" /></cc:License></rdf:RDF></metadata></svg>
