<?xml version="1.0" encoding="UTF-8" standalone="no"?>
<!-- Created with Inkscape (http://www.inkscape.org/) -->

<svg
   id="svg3041"
   sodipodi:docname="ad0d8e27-7763-4a87-9d4a-68c5cdf7930f.svg"
   viewBox="0 0 468.75 468.74998"
   version="1.1"
   inkscape:version="1.2.2 (b0a8486541, 2022-12-01)"
   width="500"
   height="500"
   xmlns:inkscape="http://www.inkscape.org/namespaces/inkscape"
   xmlns:sodipodi="http://sodipodi.sourceforge.net/DTD/sodipodi-0.dtd"
   xmlns:xlink="http://www.w3.org/1999/xlink"
   xmlns="http://www.w3.org/2000/svg"
   xmlns:svg="http://www.w3.org/2000/svg"
   xmlns:rdf="http://www.w3.org/1999/02/22-rdf-syntax-ns#"
   xmlns:cc="http://creativecommons.org/ns#"
   xmlns:dc="http://purl.org/dc/elements/1.1/">
  <defs
     id="defs26">
    <linearGradient
       id="linearGradient3235">
      <stop
         id="stop3237"
         style="stop-color:#ffffff"
         offset="0" />
      <stop
         id="stop3247"
         style="stop-color:#43ff38"
         offset=".26786" />
      <stop
         id="stop3239"
         style="stop-color:#ffffff;stop-opacity:0"
         offset="1" />
    </linearGradient>
    <radialGradient
       id="radialGradient5217"
       xlink:href="#linearGradient3235"
       gradientUnits="userSpaceOnUse"
       cy="507.57999"
       cx="544.67999"
       gradientTransform="matrix(0.6462,0,0,0.37308,192.71,318.21)"
       r="7.6715002"
       inkscape:collect="always" />
    <linearGradient
       id="linearGradient3282">
      <stop
         id="stop3284"
         style="stop-color:#ffffff;stop-opacity:.29412"
         offset="0" />
      <stop
         id="stop3286"
         style="stop-color:#ffffff;stop-opacity:0"
         offset="1" />
    </linearGradient>
    <linearGradient
       id="linearGradient4143">
      <stop
         style="stop-color:#c3c3c3;stop-opacity:1;"
         offset="0"
         id="stop4145" />
      <stop
         style="stop-color:#f3f3f3;stop-opacity:1;"
         offset="1"
         id="stop4147" />
    </linearGradient>
    <linearGradient
       id="linearGradient3844-7">
      <stop
         style="stop-color:#997979;stop-opacity:1;"
         offset="0"
         id="stop3846-4" />
      <stop
         style="stop-color:#483737;stop-opacity:1;"
         offset="1"
         id="stop3848-0" />
    </linearGradient>
    <radialGradient
       inkscape:collect="always"
       xlink:href="#linearGradient3844-7"
       id="radialGradient510"
       gradientUnits="userSpaceOnUse"
       gradientTransform="matrix(1,0,0,0.37357961,0,383.43584)"
       cx="397.23151"
       cy="600.68091"
       fx="397.23151"
       fy="600.68091"
       r="26.083048" />
    <radialGradient
       inkscape:collect="always"
       xlink:href="#linearGradient3844-7"
       id="radialGradient518"
       gradientUnits="userSpaceOnUse"
       gradientTransform="matrix(1,0,0,0.37357961,0,383.43584)"
       cx="397.23151"
       cy="600.68091"
       fx="397.23151"
       fy="600.68091"
       r="26.083048" />
    <radialGradient
       inkscape:collect="always"
       xlink:href="#linearGradient3844-7"
       id="radialGradient526"
       gradientUnits="userSpaceOnUse"
       gradientTransform="matrix(1,0,0,0.37357961,0,383.43584)"
       cx="397.23151"
       cy="600.68091"
       fx="397.23151"
       fy="600.68091"
       r="26.083048" />
    <radialGradient
       inkscape:collect="always"
       xlink:href="#linearGradient3844-7"
       id="radialGradient534"
       gradientUnits="userSpaceOnUse"
       gradientTransform="matrix(1,0,0,0.37357961,0,383.43584)"
       cx="397.23151"
       cy="600.68091"
       fx="397.23151"
       fy="600.68091"
       r="26.083048" />
    <linearGradient
       id="linearGradient4083">
      <stop
         style="stop-color:#000000;stop-opacity:0.30303031;"
         offset="0"
         id="stop4085" />
      <stop
         style="stop-color:#000000;stop-opacity:0;"
         offset="1"
         id="stop4087" />
    </linearGradient>
    <linearGradient
       id="linearGradient4139">
      <stop
         style="stop-color:#1a1a1a;stop-opacity:0.17424242;"
         offset="0"
         id="stop4141" />
      <stop
         style="stop-color:#1a1a1a;stop-opacity:0.0530303;"
         offset="1"
         id="stop4143" />
    </linearGradient>
    <clipPath
       clipPathUnits="userSpaceOnUse"
       id="clipPath367">
      <path
         d="M 64.09713,512 H 447.9029 c 22.2879,0 30.3701,-2.3206 38.5182,-6.6783 8.1482,-4.3577 14.5429,-10.7524 18.9006,-18.9006 C 509.6794,478.273 512,470.1908 512,447.9029 V 64.09713 C 512,41.80916 509.6794,33.72701 505.3217,25.57886 500.964,17.43071 494.5693,11.03599 486.4211,6.678318 478.273,2.32064 470.1908,0 447.9029,0 H 64.09713 C 41.80916,0 33.72701,2.32064 25.57886,6.678318 17.43071,11.03599 11.03599,17.43071 6.678318,25.57886 2.32064,33.72701 0,41.80916 0,64.09713 V 447.9029 c 0,22.2879 2.32064,30.3701 6.678318,38.5182 4.357672,8.1482 10.752392,14.5429 18.900542,18.9006 8.14815,4.3577 16.2303,6.6783 38.51827,6.6783 z"
         clip-rule="evenodd"
         id="path365" />
    </clipPath>
    <clipPath
       clipPathUnits="userSpaceOnUse"
       id="clipPath373">
      <path
         d="M 0,0 H 512 V 512 H 0 Z"
         id="path371" />
    </clipPath>
    <clipPath
       clipPathUnits="userSpaceOnUse"
       id="clipPath383">
      <path
         d="M 310.6214,362 424.7089,162.0939 H 310.6961 l -57.0086,99.4988 z"
         clip-rule="evenodd"
         id="path381" />
    </clipPath>
    <clipPath
       clipPathUnits="userSpaceOnUse"
       id="clipPath389">
      <path
         d="M 0,0 H 512 V 512 H 0 Z"
         id="path387" />
    </clipPath>
    <clipPath
       clipPathUnits="userSpaceOnUse"
       id="clipPath399">
      <path
         d="M 197.1006,362 83.51535,162.0939 H 197.1006 L 310.6214,362 Z"
         clip-rule="evenodd"
         id="path397" />
    </clipPath>
    <clipPath
       clipPathUnits="userSpaceOnUse"
       id="clipPath405">
      <path
         d="M 0,0 H 512 V 512 H 0 Z"
         id="path403" />
    </clipPath>
  </defs>
  <sodipodi:namedview
     id="base"
     bordercolor="#666666"
     inkscape:pageshadow="2"
     inkscape:window-y="0"
     fit-margin-left="0"
     pagecolor="#ffffff"
     fit-margin-top="0"
     inkscape:window-maximized="1"
     inkscape:zoom="0.65995362"
     inkscape:window-x="0"
     inkscape:window-height="1120"
     showgrid="false"
     borderopacity="1.0"
     inkscape:current-layer="layer1"
     inkscape:cx="-346.99408"
     inkscape:cy="118.94775"
     fit-margin-right="0"
     fit-margin-bottom="0"
     inkscape:window-width="1920"
     inkscape:pageopacity="0.0"
     inkscape:document-units="px"
     inkscape:showpageshadow="2"
     inkscape:pagecheckerboard="0"
     inkscape:deskcolor="#d1d1d1" />
  <g
     id="layer1"
     inkscape:label="Layer 1"
     inkscape:groupmode="layer"
     transform="translate(-44.3965,-11.398655)">
    <g
       id="g2008"
       transform="matrix(6.3910377,0,0,6.3910377,600.63857,50.051136)">
      <g
         id="g359"
         transform="matrix(0.13830246,0,0,-0.13830246,-85.767686,66.029958)" />
      <g
         id="g361"
         transform="matrix(0.13830246,0,0,-0.13830246,-85.767686,66.029958)">
        <g
           id="g363"
           clip-path="url(#clipPath367)">
          <g
             id="g369"
             clip-path="url(#clipPath373)">
            <path
               d="M -1,513 H 513 V -1 H -1 Z"
               style="fill:#f6b102;fill-opacity:1;fill-rule:nonzero;stroke:none"
               id="path375" />
          </g>
        </g>
      </g>
      <g
         id="g377"
         transform="matrix(0.13830246,0,0,-0.13830246,-85.767686,66.029958)">
        <g
           id="g379"
           clip-path="url(#clipPath383)">
          <g
             id="g385"
             clip-path="url(#clipPath389)">
            <path
               d="M 252.6875,363 H 425.7089 V 161.0939 H 252.6875 Z"
               style="fill:#fdebbf;fill-opacity:1;fill-rule:nonzero;stroke:none"
               id="path391" />
          </g>
        </g>
      </g>
      <g
         id="g393"
         transform="matrix(0.13830246,0,0,-0.13830246,-85.767686,66.029958)">
        <g
           id="g395"
           clip-path="url(#clipPath399)">
          <g
             id="g401"
             clip-path="url(#clipPath405)">
            <path
               d="M 82.51535,363 H 311.6214 V 161.0939 H 82.51535 Z"
               style="fill:#ffffff;fill-opacity:1;fill-rule:nonzero;stroke:none"
               id="path407" />
          </g>
        </g>
      </g>
    </g>
    <g
       id="g647"
       transform="matrix(0.30118848,0,0,0.30118848,477.16344,555.21681)">
      <g
         id="g4204"
         transform="matrix(0.32817787,0,0,0.32817787,-587.21319,-715.91052)">
        <path
           sodipodi:nodetypes="ccccccccccccccccccccccccccccccccccccccccccccccccccccccccccccccccccccc"
           inkscape:connector-curvature="0"
           id="rect4255"
           d="m -941.77665,-167.10752 v 0.97461 c 0.2375,-0.25 0.7245,-0.73711 0.9745,-0.97461 z m 728.9745,6.5625 c -239.7,150.6375 -479.2875,301.4625 -719.3125,451.5625 21.2375,1.4375 42.56287,0.38789 63.838,0.52539 14.88162,0.20573 29.76275,0.18535 44.6445,0.0763 0.075,7.90338 0.1255,15.80677 0.21287,23.72266 7.4875,0.05 14.97463,0.0887 22.47463,0.0762 -0.125,9.9875 -0.1,19.97461 0.025,29.97461 -0.1375,9.9875 -0.16375,19.97578 -0.025,29.98828 -7.5,-0.025 -15,-0.0129 -22.5,0.0371 -0.075,7.475 -0.075,14.92461 0,22.41211 5.8125,0.075 11.62612,0.0871 17.45112,0.16212 0.0375,12.4375 0.0375,24.88711 0.0625,37.34961 5.8125,0.0625 11.625,0.0516 17.4375,0.1015 0.0625,182.4625 0.0487,364.936 0.0125,547.39842 -5.8125,0.05 -11.62387,0.027 -17.42387,0.10163 -0.175,12.4625 -0.13738,24.93749 -0.0375,37.43749 v 0 c -6.65,-0.025 -13.309,-0.013 -19.959,0.037 -0.1375,10.8 -0.16613,21.6254 -0.0412,32.4629 -7.5,-0.037 -14.98713,-0.039 -22.47463,0.023 -0.15,16.6494 -0.0625,33.3129 -0.025,49.9747 -10.82501,-0.062 -21.64963,-0.053 -32.47463,0.047 -0.1125,12.8875 -0.13862,25.7879 -0.025,38.7129 451.2375,0 902.489125,10e-4 1353.72662,-0.012 0.0875,-12.9125 0.075,-25.8138 0,-38.7013 -5.2125,-0.069 -10.428,-0.1 -15.63862,-0.1037 -5.211,0 -10.41763,0.024 -15.61138,0.066 0.1375,-16.6617 -0.0138,-33.3234 -0.0138,-49.9727 -5.63137,-0.044 -11.2555,-0.07 -16.877,-0.076 -5.622,-0.01 -11.24062,0.01 -16.8595,0.039 0.0875,-10.8375 0.0875,-21.6511 0,-32.4511 -8.35,-0.1125 -16.71349,-0.1238 -25.0135,-0.049 0.17501,-12.4875 0.0275,-24.97499 -0.0125,-37.43749 -6.66249,-0.05 -13.31324,-0.089 -19.92574,-0.1015 -0.0625,-182.05002 -0.0625,-364.09847 0,-546.14848 6.625,-0.0375 13.26249,-0.0758 19.9375,-0.11324 0.025,-12.8875 -2.5e-4,-25.76173 0.0512,-38.63673 7.05,-0.05 14.09924,-0.0879 21.19925,-0.0879 0.0625,-7.48751 0.0512,-14.96328 0.0137,-22.42578 -4.59362,-0.0438 -9.18299,-0.0684 -13.7655,-0.0763 -4.583,-0.007 -9.1595,0.002 -13.7345,0.0272 0.1125,-10 0.0775,-20.00078 -0.0225,-29.98827 0.125,-9.99935 0.13688,-19.99949 0.0225,-29.98634 v 0 c 9.15,0.0375 18.31251,0.0254 27.5,-0.0371 0.075,-7.9125 0.0238,-15.81171 -0.0137,-23.69921 -4.52338,-0.0741 -8.875,-0.12437 -13.33401,-0.17384 1.3425,-10e-4 2.685,-3.6e-4 4.0275,-0.002 4.5125,0.05 8.91125,0.10075 13.48625,0.17579 12.6625,0.05 25.32625,-10e-4 38.01375,-0.20118 15.3125,0.21251 30.79913,1.08868 46.07413,-0.67382 -235.1025,-150.33525 -469.9405,-301.08625 -705.0905,-451.33625 z m 703.6935,1302.13272 c -6.041,0 -12.07825,0.013 -18.1095,0.043 -451.2375,0.013 -902.489,0.013 -1353.7265,0.013 -10,-0.062 -19.98637,-0.075 -29.98637,0.025 -0.1375,14.5625 -0.0762,29.1255 -0.0137,43.713 -4.58125,-0.037 -9.16088,-0.053 -13.74225,-0.047 -4.58113,0.013 -9.16288,0.033 -13.74413,0.082 -0.1375,11.6375 -0.11375,23.275 0.0125,34.9375 489.5625,0.075 979.125,0.05 1468.6875,0.014 0.1125,-11.6625 0.1025,-23.3243 -0.0125,-34.9493 -7.1125,-0.062 -14.18837,-0.087 -21.23837,-0.037 0.175,-14.5875 0,-29.1628 0,-43.7128 -6.04363,-0.05 -12.08638,-0.075 -18.12688,-0.08 z"
           style="opacity:1;fill:#a49064;fill-opacity:1;stroke:none;stroke-width:12;stroke-linecap:butt;stroke-linejoin:miter;stroke-miterlimit:4;stroke-dasharray:none;stroke-dashoffset:0;stroke-opacity:1" />
        <path
           inkscape:connector-curvature="0"
           id="path6"
           d="m -212.80215,-160.54502 c -239.7,150.6375 -479.2875,301.4625 -719.3125,451.5625 21.2375,1.4375 42.563,0.38789 63.838,0.52539 C -649.96415,149.61787 -431.3634,8.1045925 -212.8509,-133.50791 7.3616,7.2545925 226.57397,149.7542 446.2116,291.4667 c 15.3125,0.21251 30.79925,1.08867 46.07425,-0.67383 -235.1,-150.3375 -469.938,-301.08789 -705.088,-451.33789 z m 603.334,452.03711 c -404.3125,0.3125 -808.61325,0.12539 -1212.92575,0.0879 l -1.23825,0.0113 c 0.075,7.9125 0.12537,15.825 0.21287,23.75 7.4875,0.05 14.97463,0.0886 22.47463,0.0761 392.4875,-0.05 784.989,-0.0261 1177.4765,-0.0136 9.15,0.0375 18.3125,0.0254 27.5,-0.0371 0.075,-7.9125 0.0238,-15.81172 -0.0138,-23.69922 -4.575,-0.075 -8.97388,-0.12578 -13.48638,-0.17578 z m -0.2655,83.86133 c -4.583,-0.008 -9.1595,0.002 -13.7345,0.0274 -392.4875,0.0125 -784.989,0.025 -1177.4765,0 -7.5,-0.025 -15,-0.0129 -22.5,0.0371 -0.075,7.475 -0.075,14.92461 0,22.41211 5.8125,0.075 11.62613,0.0871 17.45113,0.16211 0.0375,12.4375 0.0375,24.88711 0.0625,37.34961 5.8125,0.0625 11.625,0.0515 17.4375,0.10151 0.0625,182.46249 0.0488,364.93594 0.0125,547.39842 -5.8125,0.05 -11.62388,0.0266 -17.42388,0.10163 -0.175,12.4625 -0.139,24.93749 -0.0388,37.43749 57.9125,0.038 115.82575,0.012 173.73825,0 0.0625,-12.4625 0.0363,-24.93869 -0.0512,-37.38869 -6.6375,-0.075 -13.2735,-0.1363 -19.8985,-0.1738 -0.075,-182.43753 -0.10125,-364.88869 0.0125,-547.32619 6.6125,-0.0875 13.23825,-0.16134 19.86325,-0.23634 0.0375,-12.4375 0.1,-24.86405 0.125,-37.28905 14.9625,-0.225 29.936,-0.2125 44.8985,0 0.025,12.85 0.0625,25.71289 0.0875,38.58789 5.8,0.075 11.58713,0.1 17.41213,0.1875 0.0875,182.025 0.0638,364.05116 0.0137,546.07619 -5.8,0.05 -11.62463,0.0484 -17.41213,0.1484 -0.125,12.4625 -0.16325,24.92659 -0.0513,37.41409 58.3375,0.012 116.6625,0.025 175,0 0.0625,-12.475 0.0375,-24.96409 -0.0375,-37.41409 -7.0625,-0.0625 -14.12462,-0.12425 -21.16212,-0.1367 -0.075,-182.45 -0.10125,-364.88789 0.0125,-547.33789 6.6125,-0.0875 13.23825,-0.17384 19.86325,-0.23634 0.0375,-12.4375 0.0863,-24.875 0.11125,-37.3125 136.6375,-0.075 273.27462,-0.114 409.91212,0.0235 0.0125,12.4375 0.0625,24.88789 0.0875,37.33789 5.8125,0.0625 11.574625,0.0883 17.412125,0.17577 0.075,182.425 0.0875,364.85039 0,547.27542 -4.6625,0.05 -13.986,0.1609 -18.6485,0.2109 -0.125,12.4625 -0.16325,24.92664 -0.05125,37.41414 58.3375,0.025 116.662505,0.013 175.000005,0 0.0625,-12.4625 0.0238,-24.93874 -0.0512,-37.38874 -6.65,-0.075 -13.286,-0.1363 -19.8985,-0.1738 -0.075,-182.43753 -0.10125,-364.88869 0.0125,-547.32619 6.59999,-0.0875 13.22575,-0.16134 19.86324,-0.23634 0.0375,-12.4375 0.0863,-24.87577 0.13676,-37.30077 12.86249,-0.2125 25.7375,-0.20078 38.62499,0.0113 0.025,12.4375 0.075,24.88788 0.10001,37.33788 5.8125,0.0625 11.56212,0.0883 17.41212,0.17578 0.075,182.425 0.0875,364.85039 0,547.27541 -4.6625,0.05 -13.986,0.1609 -18.6485,0.2109 -0.125,12.4625 -0.16325,24.92667 -0.0513,37.41417 58.325,0.013 116.64962,0.038 174.97463,0 0.175,-12.4875 0.0263,-24.97507 -0.0125,-37.43757 -6.6625,-0.05 -13.31325,-0.0891 -19.92575,-0.10162 -0.0625,-182.04998 -0.0625,-364.09843 0,-546.14843 6.625,-0.0375 13.2625,-0.0758 19.9375,-0.11325 0.025,-12.8875 7.5e-4,-25.76172 0.0513,-38.63672 7.05,-0.05 14.09925,-0.0879 21.19925,-0.0879 0.0625,-7.4875 0.0512,-14.96327 0.0137,-22.42577 -4.59375,-0.0437 -9.18275,-0.0684 -13.7655,-0.0761 z M -720.33528,435.3202 c 6.03275,-0.002 12.06601,0.0281 18.1035,0.10938 0.05,182.475 0.0375,364.95 0,547.43749 -12.075,0.0875 -24.13675,0.1383 -36.19925,-0.0113 -0.05,-182.47502 -0.0375,-364.96252 0,-547.43752 6.03125,-0.0562 12.06288,-0.0945 18.09575,-0.0976 z m 802.49413,0 c 6.034375,-0.002 12.071875,0.0281 18.10937,0.10938 0.0375,182.475 0.0375,364.95 0,547.43749 -12.087495,0.0875 -24.136745,0.1383 -36.199245,-0.0113 -0.05,-182.47502 -0.05,-364.96252 0,-547.43752 6.025,-0.0562 12.0555,-0.0945 18.089875,-0.0976 z m 212.5,0 c 6.03437,-0.002 12.07187,0.0281 18.10937,0.10938 0.0375,182.475 0.0375,364.95 0,547.43749 -12.0875,0.0875 -24.13675,0.1383 -36.19924,-0.0113 -0.05,-182.47502 -0.05,-364.96252 0,-547.43752 6.025,-0.0562 12.0555,-0.0945 18.08987,-0.0976 z m -795.61913,0.004 c 5.82338,0 11.64725,0.0312 17.4785,0.0937 0.05,182.48751 0.0375,364.96173 0,547.44922 -11.65,0.1 -23.29925,0.1125 -34.94925,0 -0.05,-182.48749 -0.0375,-364.96171 0,-547.44921 5.825,-0.0625 11.64725,-0.0937 17.47075,-0.0937 z m -184.959,0.0685 c 5.37501,-0.025 10.7875,-0.0125 16.1875,0 0.0375,182.5 0.0512,365 -0.0125,547.5 -5.39999,-0.05 -10.7875,0 -16.1875,0 -0.0375,-182.5 -0.0512,-365 0.0125,-547.5 z m 133.75,0 c 5.37501,-0.025 10.7875,-0.0125 16.1875,0 0.0375,182.5 0.0512,365 -0.0125,547.5 -5.4125,-0.05 -10.7875,0 -16.1875,0 -0.0375,-182.5 -0.0512,-365 0.0125,-547.5 z m 668.75001,0 c 5.34999,-0.025 10.7875,-0.0125 16.1875,0 0.0375,182.5 0.0513,365 -0.0125,547.5 -5.4375,-0.05 -10.7875,0 -16.1875,0 -0.0375,-182.5 -0.0513,-365 0.0125,-547.5 z m 212.5,0 c 5.33749,-0.025 10.7875,-0.0125 16.1875,0 0.0375,182.5 0.0512,365 -0.0125,547.5 -5.45,-0.05 -10.80001,0 -16.1875,0 -0.0375,-182.5 -0.0513,-365 0.0125,-547.5 z m -1100.01175,1.25 c 4.98749,-0.0125 9.96174,-0.0125 14.94925,0 0.0375,182.075 0.05,364.1625 0,546.25 -4.98751,-0.025 -9.97426,-0.025 -14.94925,0 -0.0375,-182.0875 -0.05,-364.1625 0,-546.25 z m 305,0 c 4.975,-0.0125 9.96175,-0.0125 14.94925,0 0.0375,182.075 0.05,364.1625 0,546.25 -5,-0.025 -9.97425,-0.025 -14.94925,0 -0.0375,-182.0875 -0.05,-364.1625 0,-546.25 z m 497.499995,0 c 4.9625,-0.0125 9.94925,-0.0125 14.94925,0 0.0375,182.075 0.05,364.1625 0,546.25 -5,-0.025 -9.98675,-0.025 -14.94925,0 -0.0375,-182.0875 -0.05,-364.1625 0,-546.25 z m 212.499995,0 c 4.96251,-0.0125 9.93675,-0.0125 14.94925,0 0.0375,182.075 0.05,364.1625 0,546.25 -5.0125,-0.025 -9.98675,-0.025 -14.94925,0 -0.0375,-182.0875 -0.05,-364.1625 0,-546.25 z m -458.15037,27.48047 c -56.45938,0 -112.91875,0.0258 -169.375,0.082 -0.0125,7.0125 -0.025,14.05038 -0.025,21.08788 1.8875,0.0375 5.63862,0.11288 7.51362,0.15039 107.92501,-0.0875 215.84851,-0.075 323.773505,0 1.875,-0.05 5.638625,-0.1375 7.513625,-0.1875 -0.025,-7.0375 -0.0375,-14.05 -0.025,-21.0625 -56.45625,-0.0438 -112.91562,-0.0703 -169.375,-0.0703 z m 638.72275,588.71873 c -5.622,-0.01 -11.24075,0.01 -16.8595,0.039 -411.2375,0.013 -822.489,0.025 -1233.7265,0 -7.5,-0.037 -14.98712,-0.039 -22.47462,0.023 -0.15,16.65 -0.0625,33.314 -0.025,49.9765 429.9875,0.025 859.976495,0.013 1289.97649,0.013 0.1375,-16.6625 -0.0137,-33.3246 -0.0137,-49.9746 -5.63126,-0.044 -11.25513,-0.07 -16.87688,-0.076 z m 66.25,88.746 c -6.04075,0 -12.07825,0.013 -18.1095,0.043 -451.2375,0.013 -902.489,0.013 -1353.7265,0.013 -10,-0.062 -19.98637,-0.075 -29.98637,0.025 -0.1375,14.5625 -0.0762,29.1254 -0.0137,43.7129 473.325,0.013 946.63787,0.025 1419.96287,0 0.175,-14.5875 0,-29.1629 0,-43.7129 -6.04375,-0.05 -12.08637,-0.075 -18.12687,-0.08 z"
           style="opacity:1;fill:#5b481c;fill-opacity:1" />
        <path
           sodipodi:nodetypes="ccccccccccccccccccccccccccccccccccccccccccccccccccccccccccccccccccccccccccccccccc"
           inkscape:connector-curvature="0"
           id="path10"
           d="m -212.9759,-93.431739 c -201.85,128.162494 -404.1258,255.774219 -605.2383,385.011719 404.3125,0.0375 808.6133,0.2246 1212.9258,-0.0879 C 192.7364,162.31709 -10.2009,34.505755 -212.9759,-93.431739 Z M -800.9193,345.39248 c -0.1375,9.9875 -0.1633,19.97577 -0.025,29.98827 392.4875,0.025 784.9891,0.0125 1177.47665,0 0.1125,-10 0.075,-20.00077 -0.025,-29.98827 z m 191.2129,52.41016 c -7.4844,-10e-4 -14.968,0.0515 -22.4492,0.16407 -0.025,12.425 -0.088,24.85155 -0.125,37.28905 -6.625,0.075 -13.2508,0.14883 -19.8633,0.23633 -0.1125,182.4375 -0.086,364.88865 -0.0125,547.32619 6.625,0.037 13.2609,0.099 19.8984,0.1738 0.088,12.45 0.11325,24.92622 0.051,37.38872 15,0.025 30,0.013 45,0 -0.1125,-12.4875 -0.074,-24.95162 0.051,-37.41412 5.7875,-0.1 11.6121,-0.098 17.4121,-0.1484 0.05,-182.02504 0.074,-364.05119 -0.014,-546.07619 -5.825,-0.0875 -11.6121,-0.1125 -17.4121,-0.1875 -0.025,-12.875 -0.063,-25.73788 -0.088,-38.58788 -7.4812,-0.10625 -14.9648,-0.1625 -22.4492,-0.16407 z m 799.3652,0 c -6.4375,-0.004 -12.8714,0.0461 -19.3027,0.15234 -0.05,12.425 -0.099,24.86328 -0.1367,37.30078 -6.6375,0.075 -13.2633,0.14883 -19.8633,0.23633 -0.1125,182.4375 -0.086,364.88865 -0.0125,547.32619 6.6125,0.037 13.2484,0.099 19.8984,0.1738 0.075,12.45 0.11325,24.92622 0.051,37.38872 12.4875,0.025 24.9875,0.013 37.5,0 -0.1125,-12.4875 -0.074,-24.95162 0.051,-37.41412 4.6625,-0.05 13.9859,-0.1609 18.6484,-0.2109 0.088,-182.42504 0.075,-364.85041 0,-547.27541 -5.85,-0.0875 -11.5996,-0.11325 -17.4121,-0.17578 -0.025,-12.45 -0.075,-24.90038 -0.1,-37.33788 -6.4437,-0.10625 -12.8848,-0.16095 -19.3223,-0.16407 z m -398.123,0.0722 c -68.3181,10e-4 -136.637,0.0309 -204.9551,0.0684 -0.025,12.4375 -0.074,24.875 -0.11125,37.3125 -6.625,0.0625 -13.2508,0.14882 -19.8633,0.23632 -0.1125,182.45 -0.086,364.88789 -0.0125,547.33789 7.0375,0.013 14.0996,0.074 21.1621,0.1367 0.075,12.45 0.1,24.93915 0.037,37.41415 16.2375,0.037 32.4754,0.1 48.7129,-0.025 0.037,-171.57505 0.1258,-343.16334 -0.037,-514.73834 l -12.3516,-0.5 c -0.037,-6.5625 -0.061,-13.12382 -0.086,-19.67382 -1.875,-0.0375 -5.6262,-0.11288 -7.5137,-0.15039 0,-7.0375 0.0112,-14.0754 0.023,-21.0879 112.9125,-0.1125 225.8375,-0.0997 338.75,-0.0113 -0.013,7.0125 8e-4,14.025 0.025,21.0625 -1.875,0.05 -5.6386,0.1375 -7.5136,0.1875 -0.037,6.55 -0.073,13.1125 -0.086,19.6875 -3.0875,0.1 -9.275,0.29845 -12.375,0.39845 -0.1,171.6125 -0.064,343.21367 -0.014,514.8262 19.9875,0.1625 39.9753,4e-4 59.9628,0.025 -0.1125,-12.4875 -0.074,-24.95162 0.051,-37.41412 4.6625,-0.05 13.986,-0.16091 18.6485,-0.21091 0.088,-182.42503 0.075,-364.85041 0,-547.27541 -5.8375,-0.0875 -11.5996,-0.11325 -17.4121,-0.17577 -0.025,-12.45 -0.075,-24.90039 -0.088,-37.33789 -68.3181,-0.0687 -136.6351,-0.0934 -204.9532,-0.0917 z m 665.60555,704.94926 v 0 c -5.211,0 -10.41575,0.023 -15.6095,0.066 -429.99995,0 -859.98905,0.014 -1289.97655,-0.013 -10.825,-0.062 -21.6496,-0.053 -32.4746,0.048 -0.1125,12.8875 -0.1383,25.7878 -0.025,38.7128 451.2375,0 902.4891,0 1353.72665,-0.013 0.0875,-12.9125 0.075,-25.8136 0,-38.7011 -5.2125,-0.069 -10.42987,-0.1 -15.64062,-0.1037 z M -924.6869,1185.334 c -4.5812,0.013 -9.1629,0.034 -13.7441,0.084 -0.1375,11.6375 -0.1133,23.275 0.012,34.9375 489.5625,0.075 979.125,0.049 1468.68748,0.013 0.11249,-11.6625 0.10124,-23.3242 -0.0125,-34.9492 -7.11251,-0.062 -14.18825,-0.088 -21.23826,-0.037 -473.32502,0.025 -946.63792,0.012 -1419.96292,0 -4.5812,-0.038 -9.1609,-0.053 -13.7422,-0.048 z"
           style="opacity:1;fill:#caaf7e;fill-opacity:1" />
        <g
           id="g6608">
          <path
             style="fill:#2c5928;fill-opacity:1"
             d="m -214.08727,512.88076 c -42.69688,-10e-4 -85.39376,0.0125 -128.09375,0.0371 -0.0375,169.15 -0.0525,338.30001 0.0125,507.43754 85.38751,0.062 170.7875,0.05 256.187505,0.012 0.0375,-169.15003 0.0525,-338.30001 -0.0125,-507.43751 -42.700005,-0.0312 -85.396875,-0.0473 -128.093755,-0.0488 z"
             id="path4233"
             inkscape:connector-curvature="0"
             sodipodi:nodetypes="sccccs" />
          <path
             style="fill:#51744d;fill-opacity:1"
             d="m -214.08727,512.88076 c -42.69688,-10e-4 -85.39376,0.0125 -128.09375,0.0371 -0.0375,169.15 -0.0513,338.30001 0.0125,507.43754 85.38751,0.062 170.7875,0.049 256.187505,0.011 0.0375,-169.14998 0.05125,-338.29996 -0.0125,-507.43746 -42.700005,-0.0312 -85.396875,-0.0473 -128.093755,-0.0489 z m -59.36913,28.73438 c 15.40937,-0.005 30.81838,0.009 46.22462,0.0528 0.0375,37.9 0.0625,75.79923 0,113.69923 -30.825,0.0375 -61.63675,0.075 -92.44925,0 -0.05,-37.9 -0.0625,-75.79923 0,-113.69923 15.40625,-0.025 30.81526,-0.048 46.22463,-0.0528 z m 112.5,0 c 15.40937,-0.005 30.81838,0.009 46.22462,0.0528 0.0375,37.9 0.0625,75.79923 0,113.69923 -30.825,0.0375 -61.63675,0.075 -92.44924,0 -0.05,-37.9 -0.0625,-75.79923 0,-113.69923 15.40625,-0.025 30.81524,-0.048 46.22462,-0.0528 z m -112.5,135 c 15.40937,-0.005 30.81838,0.009 46.22462,0.0528 0.0375,39.9875 0.05,79.96173 0,119.94923 -30.825,0.0375 -61.63675,0.075 -92.44925,0 -0.05,-39.9875 -0.0625,-79.97423 0,-119.94923 15.40625,-0.025 30.81526,-0.048 46.22463,-0.0528 z m 112.5,0 c 15.40937,-0.005 30.81838,0.009 46.22462,0.0528 0.0375,39.9875 0.05,79.96173 0,119.94923 -30.825,0.0375 -61.63675,0.075 -92.44924,0 -0.05,-39.9875 -0.0625,-79.97423 0,-119.94923 15.40625,-0.025 30.81524,-0.048 46.22462,-0.0528 z m -112.5,132.50586 c 15.40937,-0.006 30.81838,0.003 46.22462,0.0469 0.0375,63.73751 0.05,127.46171 0,191.1992 -30.825,0.037 -61.63675,0.075 -92.44925,0 -0.0375,-63.73749 -0.05,-127.47419 0,-191.1992 15.40625,-0.0187 30.81526,-0.0406 46.22463,-0.0469 z m 112.5,0 c 15.40937,-0.006 30.81838,0.003 46.22462,0.0469 0.0375,63.73751 0.05,127.46171 0,191.1992 -30.825,0.037 -61.63675,0.075 -92.44924,0 -0.0375,-63.73749 -0.05,-127.47419 0,-191.1992 15.40625,-0.0187 30.81524,-0.0406 46.22462,-0.0469 z"
             id="path60"
             inkscape:connector-curvature="0" />
          <path
             style="fill:#3f6b3b;fill-opacity:1"
             d="m -273.45053,547.86318 c -12.90625,10e-4 -25.8125,0.0226 -38.71875,0.0664 -0.075,33.3125 -0.0612,66.625 -0.0125,99.9375 25.8125,0.0625 51.625,0.0633 77.4375,-0.0112 0.075,-33.3125 0.0613,-66.62499 0.0125,-99.9375 -12.90625,-0.0375 -25.8125,-0.0563 -38.71875,-0.0548 z m 112.5,0 c -12.90625,10e-4 -25.8125,0.0226 -38.71875,0.0664 -0.075,33.3125 -0.0613,66.625 -0.0125,99.9375 25.8125,0.0625 51.625,0.0633 77.4375,-0.0112 0.075,-33.3125 0.0613,-66.62499 0.0125,-99.9375 -12.90625,-0.0375 -25.8125,-0.0563 -38.71875,-0.0548 z M -273.4564,684.11514 c -12.90937,10e-4 -25.81838,0.0215 -38.72462,0.0528 -0.075,34.975 -0.0375,69.96173 0,104.94923 25.81249,0.0625 51.62424,0.05 77.44924,0 0.075,-34.9875 0.0375,-69.97423 0,-104.94923 -12.90625,-0.0375 -25.81525,-0.0543 -38.72462,-0.0528 z m 112.49612,0 c -12.90787,10e-4 -25.8145,0.0215 -38.72074,0.0528 -0.075,34.975 -0.0375,69.96173 0,104.94923 25.81249,0.0625 51.62424,0.05 77.44924,0 0.075,-34.9875 0.0375,-69.97423 0,-104.94923 -12.9125,-0.0375 -25.82075,-0.0543 -38.7285,-0.0528 z m -112.49612,136.25 c -12.90937,10e-4 -25.81838,0.0215 -38.72462,0.0528 -0.0625,55.81251 -0.0375,111.62421 0,167.44922 25.81249,0.0625 51.62424,0.05 77.44924,0 0.0625,-55.8125 0.0375,-111.6367 0,-167.44922 -12.90625,-0.0375 -25.81525,-0.0543 -38.72462,-0.0528 z m 111.877,0.003 c -13.11412,0.002 -26.22737,0.025 -39.33987,0.0625 -0.075,56.22499 -0.0487,112.44999 -0.0125,168.68749 26.225,0.0625 52.45,0.0507 78.6875,-0.0113 0.075,-56.225 0.0487,-112.4625 0.0125,-168.68751 -13.11875,-0.0375 -26.23363,-0.0539 -39.34763,-0.0507 z"
             id="path66"
             inkscape:connector-curvature="0" />
        </g>
        <path
           inkscape:connector-curvature="0"
           id="path85"
           d="m -103.61421,11.244339 c -19.8723,-0.02808 -40.6613,4.93999 -55.2522,17.03711 -53.3178,-22.3800814 -123.8069,-11.435032 -162.4769,27.877649 -12.4571,12.515411 -21.5506,27.622558 -25.4934,43.784462 -14.5882,-4.58572 -19.2314,-23.830539 -6.4291,-32.171877 5.9272,-4.670155 14.6275,-4.162512 21.5714,-6.666016 6.9728,-4.773246 2.6434,-16.72461 -6.7174,-16.006493 -25.8032,-1.330014 -48.4461,21.749418 -42.9551,43.419272 2.923,14.067864 15.8031,26.514204 32.1329,29.757144 -0.9084,22.15538 9.6817,43.26564 23.1026,61.6793 5.1526,11.40734 -0.3817,23.39665 -3.899,34.50429 -0.9496,10.99885 9.531,19.83584 20.5068,23.84376 15.2251,6.38187 33.0225,8.77236 49.6659,5.88415 9.1726,-2.28358 16.7688,-9.39006 17.2936,-17.76306 0.9461,-3.3627 5.138,-5.87493 9.0559,-4.47201 10.622,1.07953 21.3853,0.2576 31.9712,0.099 5.9228,1.66234 4.5981,7.94961 7.3849,11.75 3.4567,6.41002 10.927,10.79714 19.106,11.33008 16.9863,2.25874 34.5448,-1.68866 49.4993,-8.57943 9.5427,-4.56005 18.4964,-13.35168 16.1754,-23.38541 -1.8588,-7.83433 -7.0342,-15.04935 -5.5371,-23.25782 0.7189,-10.77539 9.3203,-23.05401 23.022704,-23.48619 9.4055,-0.0474 19.9529,0.10358 27.427,-5.70736 15.4915,-10.69317 20.7744,-29.02587 19.4634,-45.45684 -0.9917,-14.65494 -7.5666,-30.645967 -22.8132,-38.585936 -6.6309,-3.479059 -14.6226,-3.714102 -22.0341,-4.078644 -6.4039,-0.853702 -12.930104,-3.013229 -17.272104,-7.317841 12.794804,-11.506899 23.147304,-26.784251 22.234304,-43.158203 -1.8122,-7.137803 -10.7583,-11.135227 -18.733704,-10.873047 z m -3.0466,19.306641 c -4.1322,11.670981 -13.4672,21.524363 -24.332,29.126953 -4.1312,5.790597 1.2906,12.37265 6.1771,16.3125 11.0445,10.388674 27.596804,15.785091 43.817204,15.607422 10.8981,3.554645 13.3469,14.733355 14.7888,23.487965 1.3503,11.39525 -1.5193,24.7075 -12.7275,32.08235 -4.475,1.49761 -9.7418,0.91683 -14.1252,0.83789 2.7183,-5.45281 1.5245,-13.90065 -6.2271,-15.57617 -7.428504,-1.67834 -14.448204,4.37811 -14.492104,10.58875 -6.2408,16.97182 -19.0298,31.75198 -35.55,42.34289 -5.9368,6.07206 1.7586,16.72711 10.7609,14.41601 1.0982,-0.11615 3.4557,-1.82595 2.9535,0.084 1.125,5.66899 4.0567,11.08098 4.9149,16.7168 -7.9752,8.36344 -21.4969,9.32353 -32.9973,11.10546 -5.3053,0.56044 -12.8546,-0.75494 -13.2398,-6.41015 -0.4251,-1.30368 -2.4283,-4.00069 0.3632,-4.08008 7.7137,-2.81375 9.045,-14.27591 0.3519,-16.78516 -8.6383,-2.78208 -16.8714,2.77051 -25.4762,2.94727 -19.9552,2.71465 -40.2171,-0.70769 -59.3135,-5.64453 -9.6218,0.67341 -12.5043,14.02315 -3.5143,17.37695 1.2512,1.07891 5.4105,0.16685 3.3576,2.46875 -1.0801,3.65605 -1.7502,9.49246 -7.6564,9.32098 -12.8201,1.57299 -26.2772,-2.20095 -37.1891,-7.77215 -3.0336,-2.24749 -2.9402,-6.1858 -0.7401,-8.84375 1.6351,-3.95284 2.3067,-8.13325 3.6596,-12.1543 6.8944,3.25008 17.2864,-1.71724 15.6485,-8.88476 -1.3587,-7.60712 -11.2647,-10.23655 -16.0879,-15.9027 -25.8219,-24.03378 -32.9291,-62.65687 -13.1886,-91.198868 21.3269,-33.195469 67.9283,-51.315776 110.9992,-46.490234 16.578,1.56574 32.7765,6.191727 47.4698,13.009766 7.9258,1.360422 12.0186,-5.943366 17.1695,-9.560547 9.8225,-6.536715 22.5314,-9.143391 34.775,-9.519531 l -0.2128,0.602805 -0.1368,0.387429 z"
           style="fill:#5b481c;fill-opacity:1" />
        <path
           inkscape:connector-curvature="0"
           id="path4182"
           d="m -109.57031,26.285156 c -17.17988,0.114142 -32.19609,9.750483 -46.24219,18.5625 -25.66146,-8.240882 -52.86413,-16.129 -79.98905,-11.909702 -33.7501,3.705653 -67.36737,20.973464 -85.33517,50.556187 -15.71729,25.777359 -11.39186,60.762579 7.61574,83.657149 5.85314,7.86666 14.29352,13.21935 20.55223,20.6573 1.47742,1.8566 2.68422,5.20616 -0.44727,6.13477 -4.69413,2.19377 -12.1828,1.02853 -14.05279,7.2329 -3.12544,6.24202 -5.15475,15.10448 0.31647,20.65186 6.65156,5.15184 15.50874,5.46104 23.11089,8.27107 8.79985,1.88694 20.14222,0.74344 25.17817,-7.71052 2.12342,-5.18595 -2.00583,-10.39709 -6.36524,-12.7539 -2.93317,-4.21302 2.4677,-10.07807 6.97031,-7.5342 21.31215,5.40335 43.60331,6.34377 65.3461,3.20021 5.56289,-0.24648 11.40258,-1.77966 16.80664,-0.46094 3.17237,2.71054 1.63105,8.01947 -1.875,9.66407 -5.07736,4.55441 -2.09041,13.52799 4.19922,15.24804 9.19538,3.02253 18.83187,-0.56253 28.06104,-1.65093 7.84733,-1.11875 16.84498,-6.6844 16.82177,-15.45063 0.51091,-7.49467 -4.00446,-16.8317 -12.39648,-17.13086 -3.47694,0.94614 -8.24824,-3.27279 -5.02735,-6.61914 3.53828,-3.45778 7.64744,-6.30334 10.92969,-10.06445 11.91988,-11.75179 21.81901,-25.66713 28.4082,-41.05469 3.50875,-3.6146 11.618143,-1.28021 10.570318,4.42578 0.124357,5.16304 4.379278,11.17474 10.140624,9.67578 14.116816,-1.32778 23.817283,-15.85377 23.388672,-29.37109 0.860029,-11.67701 -2.638664,-25.573394 -13.939453,-31.195314 -12.616094,-6.465049 -28.871071,-3.842945 -39.775081,-13.920182 -4.4527,-3.495272 -10.78618,-6.581014 -11.85578,-12.667708 1.58108,-4.958971 6.93337,-7.165962 9.84766,-11.226563 7.01482,-6.923891 13.97137,-14.996941 15.52734,-25.078125 -1.9613,-1.179713 -4.15689,-2.172007 -6.49023,-2.138672 z"
           style="opacity:1;fill:#a49064;fill-opacity:1;stroke:none;stroke-width:12;stroke-linecap:butt;stroke-linejoin:miter;stroke-miterlimit:4;stroke-dasharray:none;stroke-dashoffset:0;stroke-opacity:1" />
      </g>
      <g
         id="g629">
        <polygon
           id="polygon3"
           points="469.46,165.67 265.44,165.67 59.34,174.92 268.46,174.92 265.44,178.99 56.891,179.82 133.58,182.5 542,184.18 "
           fill="#757576"
           transform="matrix(0.93749998,0,0,0.93749998,-1075.8926,-517.93934)" />
        <g
           id="g5"
           transform="matrix(0.93749998,0,0,0.93749998,-1075.8926,-517.93934)">
	<path
   id="path7"
   d="m 79.997,135.62 -28.464,-29.469 -11.721,28.464 19.758,18.083 -1.34,3.349 5.358,10.381 -6.697,13.395 -11.72,-3.014 6.027,-13.06 -26.789,-20.215 10.715,-43.41 -5.023,-22.771 -8.372,-9.376 7.032,-25.45 11.05,-7.032 c 0,0 6.363,1.004 11.386,1.675 5.023,0.669 6.698,5.023 6.698,5.023 l 21.389,12.055 30.181,11.386 9.042,-0.335 2.344,10.381 -12.055,-0.669 -4.688,-3.014 -27.459,-8.372 -15.386,-5.031 -1.8,9.75 30.599,-2.717 6.67,4.108 -39.058,8.3 0.91,11.703 63.291,70.657 2.679,6.698 9.042,15.404 -17.413,1.674 2.009,-16.074" />

	<ellipse
   id="ellipse9"
   rx="13.06"
   transform="matrix(0.8311,-0.5561,0.5561,0.8311,-10.493,17.401)"
   ry="16.073999"
   cy="25.978001"
   cx="23.403999" />

</g>
        <polygon
           id="polygon17"
           points="261.4,82.813 265.44,95.944 245,94.293 243.97,92.133 119.67,73.094 118.51,67.938 241.5,81.891 241.35,78.778 "
           transform="matrix(0.93749998,0,0,0.93749998,-1075.8926,-517.93934)" />
      </g>
    </g>
  </g>
  <metadata
     id="metadata23">
    <rdf:RDF>
      <cc:Work>
        <dc:format>image/svg+xml</dc:format>
        <dc:type
           rdf:resource="http://purl.org/dc/dcmitype/StillImage" />
        <cc:license
           rdf:resource="http://creativecommons.org/publicdomain/zero/1.0/" />
        <dc:publisher>
          <cc:Agent
             rdf:about="http://openclipart.org/">
            <dc:title>Openclipart</dc:title>
          </cc:Agent>
        </dc:publisher>
        <dc:date>2012-01-07T08:22:20</dc:date>
        <dc:description>Help desk</dc:description>
        <dc:source>https://openclipart.org/detail/166905/help-desk-by-gsagri04</dc:source>
        <dc:creator>
          <cc:Agent>
            <dc:title>gsagri04</dc:title>
          </cc:Agent>
        </dc:creator>
        <dc:subject>
          <rdf:Bag>
            <rdf:li>Help</rdf:li>
            <rdf:li>care</rdf:li>
            <rdf:li>corporate</rdf:li>
            <rdf:li>customer</rdf:li>
            <rdf:li>desk</rdf:li>
            <rdf:li>office</rdf:li>
            <rdf:li>reception</rdf:li>
          </rdf:Bag>
        </dc:subject>
      </cc:Work>
      <cc:License
         rdf:about="http://creativecommons.org/publicdomain/zero/1.0/">
        <cc:permits
           rdf:resource="http://creativecommons.org/ns#Reproduction" />
        <cc:permits
           rdf:resource="http://creativecommons.org/ns#Distribution" />
        <cc:permits
           rdf:resource="http://creativecommons.org/ns#DerivativeWorks" />
      </cc:License>
    </rdf:RDF>
  </metadata>
</svg>
